<?xml version="1.0" encoding="utf-8"?>
<svg width="64px" height="63.999996px" viewBox="0 0 64 63.999996" version="1.1" xmlns:xlink="http://www.w3.org/1999/xlink" xmlns="http://www.w3.org/2000/svg">
  <defs>
    <rect width="64" height="64" id="artboard_1" />
    <clipPath id="clip_1">
      <use xlink:href="#artboard_1" clip-rule="evenodd" />
    </clipPath>
  </defs>
  <g id="A1" clip-path="url(#clip_1)">
    <use xlink:href="#artboard_1" stroke="none" fill="#FFFFFF" fill-opacity="0" />
  </g>
  <g id="Grupuj" transform="translate(2 1.964653)">
    <path d="M26.2622 0.17451C23.4705 0.737547 20.9954 2.70819 19.8107 5.32397C19.06 6.96616 19.0717 6.90751 19.0248 13.2182L18.9779 18.9894L13.2067 19.0363C6.896 19.0832 6.95465 19.0715 5.31245 19.8222C3.47084 20.655 1.8873 22.1682 0.995817 23.9512C0.127799 25.6989 0.0691489 26.0156 0.0104991 29.5933C-0.0364208 33.0067 0.057419 33.9334 0.632188 35.341C1.52367 37.5697 3.45911 39.5051 5.66435 40.3966C7.14232 40.9831 7.98688 41.0535 13.7228 41.0535L18.9779 41.0535L19.0248 46.8363C19.06 51.9272 19.0952 52.6896 19.2711 53.3113C20.2916 56.7364 22.884 59.1645 26.2974 59.8683C27.5642 60.1381 32.4673 60.1381 33.7459 59.8683C37.4174 59.1176 40.2326 56.2438 40.866 52.6075C40.995 51.8568 41.042 50.7307 41.042 48.3847C41.042 44.7601 40.9598 45.0417 42.0742 45.0417C42.9188 45.0534 43.7047 45.3349 44.6665 45.9566C45.9334 46.7894 46.5316 46.9654 48.0799 46.9654C49.3585 46.9771 49.4758 46.9536 50.2148 46.6017C52.0212 45.7455 52.9948 44.0094 53.0065 41.6282C53.0065 39.7397 52.3027 38.0154 50.8365 36.3615C49.945 35.3527 49.5579 34.8249 48.1386 32.6196C46.4495 29.9921 44.8777 29.0772 42.039 29.0772C38.9892 29.0772 37.4526 30.0625 35.4116 33.3586C34.8603 34.2384 33.9219 35.5286 33.3354 36.2207C31.6697 38.1327 31.0715 39.5638 31.0715 41.6165C31.0715 44.244 32.2327 46.1091 34.3207 46.7894C35.5992 47.2117 37.3587 47.0709 38.5787 46.4493L39.0479 46.2147L39.0479 48.8539C39.0479 51.9272 38.9071 52.8304 38.2502 54.191C37.3822 55.974 35.435 57.4754 33.4761 57.886C32.3266 58.1206 27.6932 58.1206 26.5554 57.886C25.2769 57.6162 24.1273 56.9945 23.1537 56.0209C22.2505 55.1177 21.7461 54.3318 21.3239 53.1353C21.0541 52.3846 21.0541 52.2439 20.9954 46.332C20.9133 39.6224 20.9602 39.986 20.1157 39.3761C19.7521 39.118 19.7169 39.118 13.7111 39.0476C7.7992 38.989 7.65844 38.989 6.90773 38.7192C4.45616 37.8629 2.66147 35.8688 2.15708 33.4876C1.92248 32.3381 1.92248 27.7165 2.15708 26.567C2.42687 25.2884 3.04856 24.1388 4.02215 23.1653C4.92536 22.262 5.71127 21.7577 6.90773 21.3354C7.65844 21.0656 7.7992 21.0656 13.7111 21.0069C19.7169 20.9366 19.7521 20.9366 20.1157 20.6785C20.9602 20.0685 20.9133 20.4322 20.9954 13.7226C21.0541 7.81072 21.0541 7.66996 21.3239 6.91924C22.1802 4.46768 24.1742 2.67299 26.5554 2.16861C27.705 1.93401 32.3266 1.93401 33.4761 2.16861C34.7547 2.43839 35.9042 3.06008 36.8778 4.03367C37.7928 4.93688 38.2854 5.73452 38.7077 6.91924C38.9658 7.6465 38.9775 7.85764 39.0244 12.1977L39.0596 16.7138L38.6138 16.2798C37.6872 15.3883 36.0684 14.8839 34.9189 15.1302C34.1095 15.2944 33.0304 15.8927 32.5377 16.4323C30.9776 18.1566 30.4967 21.5465 31.482 23.9629C32.3852 26.2033 33.8515 27.5875 35.7048 27.9276C37.4995 28.2561 39.3763 27.1652 40.2795 25.2767C41.042 23.6931 41.0537 23.4468 41.0068 15.0129C40.9716 8.17435 40.9481 7.37671 40.7604 6.7433C39.7399 3.30641 37.1359 0.878308 33.7459 0.186241C32.5846 -0.0600894 27.4352 -0.0600894 26.2622 0.17451L26.2622 0.17451ZM36.6901 17.3589C37.1711 17.5935 37.7928 18.2387 38.1916 18.8838C38.9892 20.1976 39.2355 22.4732 38.7194 23.8573C38.1798 25.3353 37.4408 25.9687 36.2913 25.9687C35.4937 25.9687 34.8603 25.6051 34.2738 24.8426C33.2884 23.5523 32.8896 22.2738 32.9835 20.702C33.089 19.048 33.7107 17.8164 34.7312 17.312C35.435 16.9484 35.9277 16.9601 36.6901 17.3589L36.6901 17.3589ZM44.2325 31.4584C45.1474 31.8806 45.7809 32.5727 46.9187 34.3791C47.9626 36.0448 48.5491 36.8424 49.3233 37.6518C50.508 38.8952 51.118 40.5373 50.9655 42.1209C50.8834 43.0358 50.7661 43.4112 50.3556 43.9977C49.9567 44.5842 49.2529 44.9361 48.3849 45.0065C47.4231 45.0886 46.5902 44.8423 45.558 44.1736C44.3146 43.3643 43.4466 43.1062 42.039 43.1062C40.6901 43.1062 39.8572 43.3291 38.8954 43.939C37.6989 44.7132 37.0538 44.9595 36.1506 45.0182C35.3998 45.0651 35.2239 45.0299 34.6491 44.7601C33.8867 44.3731 33.5113 43.9273 33.2533 43.0593C32.7371 41.2763 33.2533 39.3292 34.6609 37.7456C35.6227 36.6782 36.2092 35.8923 37.1593 34.3674C38.2502 32.6431 38.7077 32.0918 39.3528 31.7164C40.2443 31.1886 40.7487 31.083 42.215 31.1182C43.3879 31.1416 43.646 31.1886 44.2325 31.4584L44.2325 31.4584ZM47.4934 15.1654C46.5433 15.4469 46.0389 15.7519 45.1944 16.5847C42.0742 19.6815 42.4378 25.7693 45.8395 27.4936C47.6694 28.432 49.5345 28.0215 51.0828 26.3558C52.291 25.0421 52.9362 23.482 53.0886 21.5231C53.2294 19.6463 52.5139 17.4645 51.3995 16.3501C50.3556 15.3179 48.7134 14.8135 47.4934 15.1654L47.4934 15.1654ZM48.9362 17.1361C49.4875 17.2885 50.25 17.9572 50.555 18.5554C50.8482 19.1184 51.1297 20.3266 51.1297 20.9952C51.1297 21.7811 50.8248 23.0714 50.4611 23.8104C50.0154 24.7253 48.9832 25.7459 48.3263 25.9218C47.2823 26.1916 46.2031 25.6637 45.6753 24.6315C45.0301 23.3647 44.8777 21.9571 45.2061 20.5378C45.6518 18.6844 47.0242 17.1478 48.3732 17.0188C48.4436 17.0188 48.6899 17.0657 48.9362 17.1361L48.9362 17.1361ZM7.90477 23.1535C6.94291 23.3881 6.1922 23.8104 5.4884 24.5025C4.74941 25.2532 4.26848 26.1447 4.0808 27.1417C3.85793 28.3968 4.15118 28.9716 5.04266 28.9716C5.55878 28.9716 5.96933 28.5493 5.96933 28.0332C5.96933 27.4467 6.30949 26.5552 6.73177 26.0743C7.2127 25.5113 7.93996 25.1476 8.79625 25.0303C9.5587 24.9248 9.95752 24.5846 9.95752 24.0216C9.94579 23.1183 9.25372 22.8251 7.90477 23.1535L7.90477 23.1535ZM12.5264 23.1653C12.1862 23.3529 11.9164 23.9394 12.0337 24.2561C12.0689 24.3617 12.2097 24.5729 12.3387 24.7136C12.5498 24.9482 12.6906 24.9834 13.5 24.9834C14.3211 24.9834 14.4618 24.9482 14.7082 24.6902C15.0835 24.3265 15.0835 23.8104 14.7199 23.3764C14.4736 23.0949 14.3445 23.048 13.6407 23.0245C13.0777 23.001 12.7375 23.0362 12.5264 23.1653L12.5264 23.1653ZM26.6845 25.4643C25.1596 25.828 24.0335 27.4819 24.0335 29.3704C24.0335 31.4935 25.3472 33.687 27.1185 34.5199C30.8838 36.3028 33.7928 32.5258 31.787 28.4437C31.0245 26.9071 29.8633 25.8866 28.4322 25.523C27.658 25.3118 27.3648 25.3118 26.6845 25.4643L26.6845 25.4643ZM28.6551 27.7751C29.6639 28.3264 30.3911 29.6402 30.4146 30.954C30.4263 32.2794 29.8985 32.995 28.9014 32.995C27.271 32.995 25.7109 30.6255 26.0745 28.6901C26.1566 28.2326 26.6375 27.5992 27.0129 27.435C27.3648 27.2942 27.9982 27.4232 28.6551 27.7751L28.6551 27.7751ZM55.6341 25.4995C52.3849 26.3206 50.5315 30.8132 52.3379 33.5111C53.0652 34.602 54.3789 35.1885 55.5989 34.9539C57.5226 34.5903 59.0357 33.2178 59.6809 31.2824C60.8422 27.7986 58.6838 24.7253 55.6341 25.4995L55.6341 25.4995ZM57.3232 27.6461C57.4757 27.7399 57.7103 28.0567 57.8393 28.3616C58.6135 30.1094 56.9478 32.995 55.1531 32.995C54.1561 32.995 53.6517 32.3264 53.6634 31.0243C53.6751 29.6989 54.2851 28.4672 55.1883 27.9042C56.1384 27.3177 56.7249 27.2473 57.3232 27.6461L57.3232 27.6461Z" id="Group" fill="#000000" fill-rule="evenodd" stroke="none" />
  </g>
</svg>