<?xml version="1.0" encoding="utf-8"?>
<svg width="310px" height="70px" viewBox="0 0 310 70" version="1.1" xmlns:xlink="http://www.w3.org/1999/xlink" xmlns="http://www.w3.org/2000/svg">
  <defs>
    <rect width="310" height="70" id="artboard_1" />
    <clipPath id="clip_1">
      <use xlink:href="#artboard_1" clip-rule="evenodd" />
    </clipPath>
  </defs>
  <g id="Pixelbook" clip-path="url(#clip_1)">
    <use xlink:href="#artboard_1" stroke="none" fill="#FFFFFF" fill-opacity="0" />
    <g id="Grupuj-5" transform="translate(5 1)" artboard="a09d6f86-dc81-4094-8b21-dd1ae55f41e4">
      <g id="vet">
        <path d="M29.6753 0.19719C26.5208 0.833403 23.7241 3.06015 22.3854 6.0159C21.5371 7.87152 21.5504 7.80525 21.4973 14.9361L21.4443 21.4573L14.9231 21.5104C7.79223 21.5634 7.8585 21.5501 6.00288 22.3984C3.92193 23.3395 2.13258 25.0493 1.12524 27.064C0.144408 29.0389 0.0781359 29.3968 0.0118636 33.4394C-0.0411543 37.2964 0.0648814 38.3435 0.71435 39.934C1.72169 42.4524 3.90867 44.6394 6.40051 45.6467C8.07057 46.3094 9.0249 46.389 15.5063 46.389L21.4443 46.389L21.4973 52.9234C21.5371 58.6758 21.5769 59.5374 21.7757 60.2399C22.9288 64.1102 25.8581 66.8539 29.7151 67.6491C31.1466 67.954 36.6869 67.954 38.1317 67.6491C42.2803 66.8008 45.4614 63.5535 46.1771 59.4446C46.3229 58.5963 46.376 57.3239 46.376 54.673C46.376 50.5774 46.2832 50.8955 47.5424 50.8955C48.4967 50.9087 49.3847 51.2268 50.4716 51.9293C51.9031 52.8704 52.579 53.0692 54.3286 53.0692C55.7734 53.0825 55.9059 53.056 56.7409 52.6583C58.7821 51.6908 59.8823 49.7291 59.8955 47.0384C59.8955 44.9045 59.1002 42.9561 57.4434 41.0872C56.4361 39.9473 55.9987 39.3509 54.3949 36.859C52.4863 33.89 50.7102 32.8562 47.5026 32.8562C44.0564 32.8562 42.3201 33.9695 40.0138 37.694C39.3909 38.6881 38.3305 40.1461 37.6678 40.9281C35.7856 43.0886 35.1097 44.7057 35.1097 47.0252C35.1097 49.9942 36.4219 52.1016 38.7812 52.8704C40.2259 53.3476 42.2141 53.1885 43.5925 52.486L44.1227 52.2209L44.1227 55.2032C44.1227 58.6758 43.9636 59.6964 43.2214 61.234C42.2406 63.2486 40.0403 64.9452 37.8268 65.4091C36.5279 65.6742 31.2924 65.6742 30.0067 65.4091C28.562 65.1043 27.263 64.4018 26.1629 63.3017C25.1423 62.2811 24.5724 61.393 24.0952 60.0411C23.7904 59.1928 23.7904 59.0337 23.7241 52.3535C23.6313 44.7719 23.6843 45.1828 22.73 44.4936C22.3191 44.202 22.2794 44.202 15.4931 44.1225C8.81282 44.0562 8.65377 44.0562 7.80549 43.7513C5.0353 42.7838 3.00737 40.5305 2.43743 37.8398C2.17234 36.5409 2.17234 31.3187 2.43743 30.0197C2.74228 28.575 3.44477 27.276 4.54489 26.1759C5.56548 25.1553 6.45353 24.5854 7.80549 24.1082C8.65377 23.8034 8.81282 23.8034 15.4931 23.7371C22.2794 23.6576 22.3191 23.6576 22.73 23.366C23.6843 22.6767 23.6313 23.0876 23.7241 15.5061C23.7904 8.82584 23.7904 8.66679 24.0952 7.8185C25.0628 5.04832 27.316 3.02039 30.0067 2.45045C31.3056 2.18536 36.5279 2.18536 37.8268 2.45045C39.2716 2.7553 40.5705 3.45779 41.6706 4.55791C42.7045 5.5785 43.2612 6.4798 43.7383 7.8185C44.0299 8.64028 44.0432 8.87886 44.0962 13.783L44.136 18.886L43.6323 18.3956C42.5852 17.3882 40.7561 16.8183 39.4571 17.0966C38.5426 17.2822 37.3232 17.9582 36.7665 18.5679C35.0036 20.5163 34.4602 24.3468 35.5736 27.0772C36.5942 29.6088 38.251 31.1729 40.3452 31.5572C42.3731 31.9284 44.4938 30.6957 45.5144 28.5617C46.376 26.7724 46.3892 26.494 46.3362 16.9641C46.2964 9.23673 46.2699 8.33543 46.0579 7.61969C44.9047 3.73613 41.9622 0.992458 38.1317 0.210445C36.8195 -0.0678989 31.0008 -0.0678989 29.6753 0.19719L29.6753 0.19719ZM41.4585 19.615C42.002 19.8801 42.7045 20.6091 43.1551 21.3381C44.0564 22.8225 44.3348 25.3939 43.7516 26.9579C43.1419 28.628 42.3068 29.3437 41.0079 29.3437C40.1066 29.3437 39.3909 28.9329 38.7281 28.0713C37.6148 26.6133 37.1641 25.1686 37.2701 23.3925C37.3894 21.5236 38.0919 20.1319 39.2451 19.562C40.0403 19.1511 40.597 19.1643 41.4585 19.615L41.4585 19.615ZM49.9812 35.5468C51.015 36.024 51.7308 36.806 53.0164 38.8472C54.1961 40.7293 54.8588 41.6306 55.7336 42.5452C57.0723 43.9501 57.7615 45.8058 57.5892 47.5951C57.4964 48.629 57.3639 49.0531 56.9 49.7158C56.4493 50.3786 55.6541 50.7762 54.6732 50.8557C53.5864 50.9485 52.6453 50.6702 51.4789 49.9147C50.0739 49.0001 49.0931 48.7085 47.5026 48.7085C45.9783 48.7085 45.0373 48.9603 43.9504 49.6496C42.5984 50.5244 41.8694 50.8027 40.8489 50.869C40.0006 50.922 39.8017 50.8822 39.1523 50.5774C38.2907 50.14 37.8666 49.6363 37.575 48.6555C36.9918 46.6408 37.575 44.4406 39.1655 42.6512C40.2524 41.4451 40.9151 40.557 41.9887 38.8339C43.2214 36.8855 43.7383 36.2626 44.4673 35.8384C45.4747 35.242 46.0446 35.1227 47.7014 35.1624C49.0268 35.189 49.3184 35.242 49.9812 35.5468L49.9812 35.5468ZM53.6659 17.1364C52.5923 17.4545 52.0224 17.7991 51.068 18.7402C47.5424 22.2394 47.9532 29.1184 51.797 31.0668C53.8647 32.1272 55.9722 31.6633 57.7218 29.7811C59.087 28.2966 59.816 26.5338 59.9883 24.3203C60.1473 22.1996 59.3388 19.7343 58.0797 18.4751C56.9 17.3087 55.0444 16.7388 53.6659 17.1364L53.6659 17.1364ZM55.2962 19.3631C55.9192 19.5354 56.7807 20.291 57.1253 20.9669C57.4567 21.6031 57.7748 22.9683 57.7748 23.7239C57.7748 24.6119 57.4302 26.0699 57.0193 26.9049C56.5156 27.9388 55.3492 29.0919 54.607 29.2907C53.4273 29.5956 52.2079 28.9991 51.6115 27.8327C50.8825 26.4013 50.7102 24.8107 51.0813 23.2069C51.585 21.1127 53.1357 19.3764 54.66 19.2306C54.7395 19.2306 55.0179 19.2836 55.2962 19.3631L55.2962 19.3631ZM8.93211 26.1627C7.84525 26.4278 6.99696 26.9049 6.20169 27.6869C5.36666 28.5352 4.82323 29.5426 4.61116 30.6692C4.35932 32.0874 4.69069 32.7369 5.69803 32.7369C6.28122 32.7369 6.74513 32.2597 6.74513 31.6765C6.74513 31.0138 7.12951 30.0065 7.60667 29.463C8.1501 28.8268 8.97188 28.4159 9.93945 28.2834C10.801 28.1641 11.2516 27.7797 11.2516 27.1435C11.2384 26.1229 10.4564 25.7915 8.93211 26.1627L8.93211 26.1627ZM14.1544 26.1759C13.77 26.388 13.4651 27.0507 13.5977 27.4086C13.6374 27.5279 13.7965 27.7665 13.9423 27.9255C14.1809 28.1906 14.3399 28.2304 15.2545 28.2304C16.1823 28.2304 16.3414 28.1906 16.6197 27.899C17.0438 27.4881 17.0438 26.9049 16.633 26.4145C16.3546 26.0964 16.2088 26.0434 15.4135 26.0169C14.7773 25.9904 14.3929 26.0301 14.1544 26.1759L14.1544 26.1759ZM30.1525 28.7738C28.4294 29.1847 27.157 31.0536 27.157 33.1875C27.157 35.5866 28.6415 38.0652 30.6429 39.0062C34.8976 41.0209 38.1847 36.753 35.9182 32.1404C35.0566 30.4041 33.7444 29.251 32.1274 28.8401C31.2526 28.6015 30.9212 28.6015 30.1525 28.7738L30.1525 28.7738ZM32.3792 31.3849C33.5191 32.0079 34.3409 33.4924 34.3674 34.9769C34.3807 36.4746 33.7842 37.2832 32.6576 37.2832C30.8152 37.2832 29.0524 34.6058 29.4633 32.4188C29.556 31.9018 30.0995 31.1861 30.5236 31.0005C30.9212 30.8415 31.637 30.9873 32.3792 31.3849L32.3792 31.3849ZM62.8645 28.8136C59.193 29.7414 57.0988 34.8178 59.14 37.8664C59.9618 39.099 61.4463 39.7617 62.8247 39.4967C64.9985 39.0858 66.7083 37.535 67.4373 35.348C68.7495 31.4114 66.3107 27.9388 62.8645 28.8136L62.8645 28.8136ZM64.7732 31.2391C64.9455 31.3452 65.2106 31.703 65.3564 32.0476C66.2311 34.0226 64.349 37.2832 62.3211 37.2832C61.1945 37.2832 60.6245 36.5276 60.6378 35.0564C60.651 33.5587 61.3402 32.1669 62.3608 31.5307C63.4345 30.868 64.0972 30.7885 64.7732 31.2391L64.7732 31.2391Z" id="Group" fill="#000000" fill-rule="evenodd" stroke="none" />
      </g>
      <g id="Grupuj-2" transform="translate(70.83043 12.940299)">
        <path d="M226.916 29.4912C226.342 29.4912 225.823 29.3144 225.359 28.961C224.895 28.6075 224.663 28.0994 224.663 27.4367L224.663 2.25326C224.663 1.50217 224.895 0.938859 225.359 0.563314C225.823 0.18777 226.342 0 226.916 0C227.491 0 228.01 0.18777 228.474 0.563314C228.938 0.938859 229.17 1.50217 229.17 2.25326L229.17 27.4367C229.17 28.0994 228.938 28.6075 228.474 28.961C228.01 29.3144 227.491 29.4912 226.916 29.4912L226.916 29.4912ZM210.812 29.4912C209.575 29.4912 208.471 29.2813 207.499 28.8616C206.527 28.4419 205.687 27.8785 204.98 27.1716L204.98 36.3835C204.98 37.0462 204.748 37.5543 204.284 37.9077C203.82 38.2612 203.301 38.4379 202.727 38.4379C202.153 38.4379 201.633 38.2612 201.17 37.9077C200.706 37.5543 200.474 37.0462 200.474 36.3835L200.474 11.8627C200.474 11.1117 200.706 10.5483 201.17 10.1728C201.633 9.79725 202.153 9.60948 202.727 9.60948C203.257 9.60948 203.743 9.77516 204.185 10.1065C204.627 10.4379 204.892 10.9128 204.98 11.5314C205.687 10.8687 206.527 10.3274 207.499 9.90771C208.471 9.48798 209.575 9.27812 210.812 9.27812C212.756 9.27812 214.468 9.70889 215.948 10.5704C217.428 11.432 218.588 12.6138 219.428 14.116C220.267 15.6182 220.687 17.3192 220.687 19.219C220.687 21.1629 220.267 22.9192 219.428 24.4876C218.588 26.0561 217.428 27.2821 215.948 28.1657C214.468 29.0494 212.756 29.4912 210.812 29.4912L210.812 29.4912ZM210.414 25.3823C212.138 25.3823 213.529 24.819 214.59 23.6923C215.65 22.5657 216.18 21.0746 216.18 19.219C216.18 17.4517 215.65 16.0379 214.59 14.9775C213.529 13.9172 212.138 13.387 210.414 13.387C208.736 13.387 207.41 13.9172 206.438 14.9775C205.466 16.0379 204.98 17.4517 204.98 19.219C204.98 21.0746 205.466 22.5657 206.438 23.6923C207.41 24.819 208.736 25.3823 210.414 25.3823L210.414 25.3823ZM191.262 29.8225C190.422 29.8225 189.704 29.5464 189.108 28.9941C188.512 28.4419 188.213 27.7902 188.213 27.0391C188.213 26.2438 188.512 25.5701 189.108 25.0178C189.704 24.4655 190.422 24.1894 191.262 24.1894C192.057 24.1894 192.742 24.4655 193.316 25.0178C193.891 25.5701 194.178 26.2438 194.178 27.0391C194.178 27.7902 193.891 28.4419 193.316 28.9941C192.742 29.5464 192.057 29.8225 191.262 29.8225L191.262 29.8225ZM179.598 29.4912C179.024 29.4912 178.504 29.3144 178.04 28.961C177.577 28.6075 177.345 28.0994 177.345 27.4367L177.345 11.5314C177.345 10.7803 177.577 10.217 178.04 9.84143C178.504 9.46589 179.024 9.27812 179.598 9.27812C180.172 9.27812 180.691 9.46589 181.155 9.84143C181.619 10.217 181.851 10.7803 181.851 11.5314L181.851 27.4367C181.851 28.0994 181.619 28.6075 181.155 28.961C180.691 29.3144 180.172 29.4912 179.598 29.4912L179.598 29.4912ZM179.664 5.63314C178.825 5.63314 178.107 5.35701 177.51 4.80474C176.914 4.25247 176.616 3.5787 176.616 2.78344C176.616 2.03235 176.914 1.38067 177.51 0.828404C178.107 0.276136 178.825 0 179.664 0C180.459 0 181.144 0.276136 181.719 0.828404C182.293 1.38067 182.58 2.03235 182.58 2.78344C182.58 3.5787 182.293 4.25247 181.719 4.80474C181.144 5.35701 180.459 5.63314 179.664 5.63314L179.664 5.63314ZM164.885 29.4912C161.925 29.4912 159.495 28.5413 157.595 26.6415C155.696 24.7417 154.746 22.2675 154.746 19.219C154.746 17.275 155.188 15.5519 156.071 14.0497C156.955 12.5476 158.159 11.3767 159.683 10.5373C161.207 9.69784 162.941 9.27812 164.885 9.27812C167.536 9.27812 169.79 9.89666 171.645 11.1337C172.264 11.5314 172.573 12.0836 172.573 12.7906C172.573 13.4975 172.352 14.0497 171.91 14.4474C171.468 14.845 170.96 15.0438 170.386 15.0438C169.988 15.0438 169.635 14.9554 169.326 14.7787C167.691 13.6742 166.167 13.1882 164.753 13.3207C163.03 13.4975 161.682 14.0829 160.71 15.0769C159.738 16.071 159.252 17.4738 159.252 19.2852C159.252 21.185 159.771 22.6762 160.81 23.7586C161.848 24.8411 163.317 25.3823 165.217 25.3823C166.896 25.3823 168.575 24.7417 170.253 23.4604C170.607 23.1511 171.071 22.9965 171.645 22.9965C172.308 22.9965 172.805 23.2505 173.136 23.7586C173.468 24.2667 173.633 24.7417 173.633 25.1835C173.633 25.802 173.346 26.3764 172.772 26.9065C171.667 27.8785 170.452 28.5523 169.127 28.9279C167.801 29.3034 166.388 29.4912 164.885 29.4912L164.885 29.4912ZM143.745 29.4912C142.463 29.4912 141.16 29.3255 139.835 28.9941C138.509 28.6628 137.338 28.1436 136.322 27.4367C135.792 26.9507 135.527 26.4205 135.527 25.8462C135.527 25.2718 135.759 24.7637 136.223 24.3219C136.687 23.8801 137.206 23.6592 137.78 23.6592C138.089 23.6592 138.399 23.7476 138.708 23.9243C139.503 24.4103 140.42 24.7969 141.458 25.0841C142.496 25.3712 143.479 25.5148 144.407 25.5148C145.291 25.5148 146.053 25.3602 146.694 25.0509C147.334 24.7417 147.655 24.2336 147.655 23.5267C147.655 22.8198 147.345 22.2896 146.727 21.9361C146.108 21.5827 145.048 21.3176 143.546 21.1409C142.927 21.0525 142.187 20.942 141.326 20.8095C140.464 20.677 139.614 20.434 138.774 20.0805C137.935 19.7271 137.228 19.1969 136.653 18.49C136.079 17.7831 135.792 16.8332 135.792 15.6403C135.792 13.6963 136.51 12.1499 137.946 11.0012C139.382 9.85248 141.315 9.27812 143.745 9.27812C145.158 9.27812 146.495 9.45485 147.754 9.8083C149.013 10.1617 149.952 10.6036 150.571 11.1337C151.057 11.5314 151.3 11.9953 151.3 12.5255C151.3 13.0998 151.101 13.6079 150.703 14.0497C150.306 14.4915 149.82 14.7124 149.245 14.7124C148.936 14.7124 148.649 14.6462 148.384 14.5136C147.677 14.116 146.893 13.8178 146.031 13.619C145.169 13.4201 144.341 13.3207 143.546 13.3207C142.618 13.3207 141.834 13.4643 141.193 13.7515C140.552 14.0387 140.232 14.4915 140.232 15.1101C140.232 15.5519 140.42 15.9385 140.795 16.2698C141.171 16.6012 142.154 16.8773 143.745 17.0982C144.496 17.1866 145.346 17.3192 146.296 17.4959C147.246 17.6726 148.163 17.9487 149.046 18.3243C149.93 18.6998 150.659 19.2852 151.233 20.0805C151.808 20.8758 152.095 21.9582 152.095 23.3278C152.095 24.7417 151.697 25.9014 150.902 26.8071C150.107 27.7129 149.079 28.3866 147.82 28.8284C146.561 29.2703 145.203 29.4912 143.745 29.4912L143.745 29.4912ZM121.543 29.4912C119.644 29.4912 117.943 29.0494 116.44 28.1657C114.938 27.2821 113.767 26.0561 112.928 24.4876C112.089 22.9192 111.669 21.1629 111.669 19.219C111.669 17.3192 112.089 15.6182 112.928 14.116C113.767 12.6138 114.938 11.432 116.44 10.5704C117.943 9.70889 119.644 9.27812 121.543 9.27812C122.78 9.27812 123.885 9.48798 124.857 9.90771C125.829 10.3274 126.668 10.8687 127.375 11.5314C127.464 10.9128 127.729 10.4379 128.171 10.1065C128.612 9.77516 129.098 9.60948 129.629 9.60948C130.203 9.60948 130.722 9.79725 131.186 10.1728C131.65 10.5483 131.882 11.1117 131.882 11.8627L131.882 27.4367C131.882 28.0994 131.65 28.6075 131.186 28.961C130.722 29.3144 130.203 29.4912 129.629 29.4912C129.054 29.4912 128.535 29.3144 128.071 28.961C127.607 28.6075 127.375 28.0994 127.375 27.4367L127.375 27.1716C126.668 27.8785 125.829 28.4419 124.857 28.8616C123.885 29.2813 122.78 29.4912 121.543 29.4912L121.543 29.4912ZM121.941 25.3823C123.62 25.3823 124.945 24.819 125.917 23.6923C126.889 22.5657 127.375 21.0746 127.375 19.219C127.375 17.4517 126.889 16.0379 125.917 14.9775C124.945 13.9172 123.62 13.387 121.941 13.387C120.218 13.387 118.826 13.9172 117.766 14.9775C116.705 16.0379 116.175 17.4517 116.175 19.219C116.175 21.0746 116.705 22.5657 117.766 23.6923C118.826 24.819 120.218 25.3823 121.941 25.3823L121.941 25.3823ZM105.373 29.4912C104.799 29.4912 104.279 29.3144 103.816 28.961C103.352 28.6075 103.12 28.0994 103.12 27.4367L103.12 11.5314C103.12 10.7803 103.352 10.217 103.816 9.84143C104.279 9.46589 104.799 9.27812 105.373 9.27812C105.947 9.27812 106.466 9.46589 106.93 9.84143C107.394 10.217 107.626 10.7803 107.626 11.5314L107.626 27.4367C107.626 28.0994 107.394 28.6075 106.93 28.961C106.466 29.3144 105.947 29.4912 105.373 29.4912L105.373 29.4912ZM105.439 5.63314C104.6 5.63314 103.882 5.35701 103.285 4.80474C102.689 4.25247 102.391 3.5787 102.391 2.78344C102.391 2.03235 102.689 1.38067 103.285 0.828404C103.882 0.276136 104.6 0 105.439 0C106.234 0 106.919 0.276136 107.494 0.828404C108.068 1.38067 108.355 2.03235 108.355 2.78344C108.355 3.5787 108.068 4.25247 107.494 4.80474C106.919 5.35701 106.234 5.63314 105.439 5.63314L105.439 5.63314ZM95.8297 29.4912C95.2554 29.4912 94.7362 29.3144 94.2723 28.961C93.8084 28.6075 93.5765 28.0994 93.5765 27.4367L93.5765 19.0864C93.5765 17.1424 93.1457 15.7065 92.2841 14.7787C91.4226 13.8509 90.2849 13.387 88.8711 13.387C87.0597 13.387 85.7453 13.9724 84.9279 15.1432C84.1106 16.314 83.7019 17.6063 83.7019 19.0201L83.7019 27.4367C83.7019 28.0994 83.4699 28.6075 83.006 28.961C82.5421 29.3144 82.023 29.4912 81.4486 29.4912C80.8743 29.4912 80.3551 29.3144 79.8912 28.961C79.4273 28.6075 79.1954 28.0994 79.1954 27.4367L79.1954 11.8627C79.1954 11.1117 79.4273 10.5483 79.8912 10.1728C80.3551 9.79725 80.8743 9.60948 81.4486 9.60948C82.023 9.60948 82.5421 9.79725 83.006 10.1728C83.4699 10.5483 83.7019 11.1117 83.7019 11.8627C84.453 11.1117 85.425 10.4931 86.6179 10.0071C87.8108 9.52112 88.9374 9.27812 89.9978 9.27812C92.4719 9.27812 94.438 10.0734 95.896 11.6639C97.354 13.2545 98.083 15.5961 98.083 18.6888L98.083 27.4367C98.083 28.0994 97.84 28.6075 97.354 28.961C96.868 29.3144 96.3599 29.4912 95.8297 29.4912L95.8297 29.4912ZM64.9468 29.4912C63.0029 29.4912 61.2466 29.0494 59.6782 28.1657C58.1097 27.2821 56.8837 26.0561 56.0001 24.4876C55.1165 22.9192 54.6746 21.1629 54.6746 19.219C54.6746 17.3192 55.1165 15.6182 56.0001 14.116C56.8837 12.6138 58.1097 11.432 59.6782 10.5704C61.2466 9.70889 63.0029 9.27812 64.9468 9.27812C66.8908 9.27812 68.636 9.70889 70.1824 10.5704C71.7287 11.432 72.9547 12.6138 73.8605 14.116C74.7662 15.6182 75.219 17.3192 75.219 19.219C75.219 21.1629 74.7662 22.9192 73.8605 24.4876C72.9547 26.0561 71.7287 27.2821 70.1824 28.1657C68.636 29.0494 66.8908 29.4912 64.9468 29.4912L64.9468 29.4912ZM64.9468 25.3823C66.6699 25.3823 68.0616 24.819 69.122 23.6923C70.1824 22.5657 70.7125 21.0746 70.7125 19.219C70.7125 17.4517 70.1824 16.0379 69.122 14.9775C68.0616 13.9172 66.6699 13.387 64.9468 13.387C63.1796 13.387 61.7768 13.9172 60.7386 14.9775C59.7003 16.0379 59.1812 17.4517 59.1812 19.219C59.1812 21.0746 59.7003 22.5657 60.7386 23.6923C61.7768 24.819 63.1796 25.3823 64.9468 25.3823L64.9468 25.3823ZM39.9622 38.1066C39.0344 38.1066 37.9961 38.0182 36.8474 37.8415C35.6987 37.6647 34.572 37.2892 33.4675 36.7148C32.6281 36.273 32.2083 35.5882 32.2083 34.6604C32.2083 34.1302 32.3961 33.6442 32.7716 33.2024C33.1472 32.7606 33.6221 32.5397 34.1965 32.5397C34.5941 32.5397 34.9918 32.6501 35.3894 32.8711C36.2289 33.3129 37.0683 33.6221 37.9077 33.7989C38.7472 33.9756 39.5646 34.064 40.3598 34.064C41.9504 34.064 43.32 33.6553 44.4687 32.8379C45.6174 32.0206 46.1918 30.7282 46.1918 28.961L46.1918 27.1054C45.4407 27.8565 44.5681 28.4419 43.574 28.8616C42.5799 29.2813 41.4644 29.4912 40.2273 29.4912C38.4158 29.4912 36.7701 29.0494 35.29 28.1657C33.8099 27.2821 32.6391 26.0671 31.7776 24.5207C30.916 22.9744 30.4853 21.2292 30.4853 19.2852C30.4853 17.3413 30.905 15.5961 31.7444 14.0497C32.5839 12.5034 33.7326 11.2884 35.1906 10.4047C36.6486 9.52112 38.3054 9.14558 40.161 9.27812C41.4423 9.36648 42.5799 9.62053 43.574 10.0403C44.5681 10.46 45.4407 11.0233 46.1918 11.7302C46.1918 11.1117 46.4016 10.6036 46.8214 10.2059C47.2411 9.8083 47.7823 9.60948 48.445 9.60948C49.1078 9.60948 49.649 9.8083 50.0687 10.2059C50.4884 10.6036 50.6983 11.1117 50.6983 11.7302L50.6983 29.0935C50.6983 31.1259 50.2233 32.8158 49.2734 34.1634C48.3235 35.5109 47.0312 36.505 45.3965 37.1456C43.7618 37.7862 41.9504 38.1066 39.9622 38.1066L39.9622 38.1066ZM40.7575 25.3823C42.4364 25.3823 43.7618 24.819 44.7338 23.6923C45.7058 22.5657 46.1918 21.0746 46.1918 19.219C46.1918 17.4517 45.7058 16.0379 44.7338 14.9775C43.7618 13.9172 42.4364 13.387 40.7575 13.387C39.0344 13.387 37.6427 13.9172 36.5823 14.9775C35.5219 16.0379 34.9918 17.4738 34.9918 19.2852C34.9918 21.0525 35.5109 22.5105 36.5492 23.6592C37.5874 24.8079 38.9902 25.3823 40.7575 25.3823L40.7575 25.3823ZM13.8509 29.4912C11.2884 29.4912 8.9578 28.8837 6.85918 27.6687C4.76056 26.4537 3.09271 24.7969 1.85562 22.6983C0.618541 20.5996 -1.26404e-07 18.2249 0 15.574C-1.26404e-07 12.7906 0.618541 10.3606 1.85562 8.28404C3.09271 6.20751 4.76056 4.58384 6.85918 3.41302C8.95781 2.24221 11.2884 1.65681 13.8509 1.65681C16.4134 1.65681 18.7219 2.24221 20.7764 3.41302C22.8308 4.58384 24.4655 6.20751 25.6805 8.28404C26.8955 10.3606 27.503 12.7906 27.503 15.574C27.503 18.2249 26.8955 20.5996 25.6805 22.6983C24.4655 24.7969 22.8308 26.4537 20.7764 27.6687C18.7219 28.8837 16.4134 29.4912 13.8509 29.4912L13.8509 29.4912ZM13.8509 25.4486C15.6182 25.4486 17.1756 24.9957 18.5231 24.09C19.8706 23.1843 20.9199 21.9803 21.671 20.4781C22.4221 18.976 22.7977 17.3412 22.7977 15.574C22.7977 12.7464 21.9582 10.4047 20.2793 8.54912C18.6004 6.6935 16.4576 5.76569 13.8509 5.76569C11.2 5.76569 9.03512 6.6935 7.35622 8.54912C5.67732 10.4047 4.83788 12.7464 4.83788 15.574C4.83788 17.3412 5.21342 18.976 5.9645 20.4781C6.71559 21.9803 7.77595 23.1843 9.14557 24.09C10.5152 24.9957 12.0836 25.4486 13.8509 25.4486L13.8509 25.4486Z" id="Ogoniasci.pl" fill="#000000" stroke="none" />
        <path d="M190.93 33.907C190.93 33.6949 191.003 33.5293 191.149 33.41C191.295 33.2907 191.454 33.231 191.626 33.231C191.905 33.231 192.103 33.3702 192.223 33.6485L193.774 37.4459C193.813 37.552 193.886 37.605 193.992 37.605C194.098 37.605 194.171 37.5586 194.211 37.4658L195.543 33.6684C195.649 33.3768 195.854 33.231 196.159 33.231C196.345 33.231 196.514 33.2907 196.666 33.41C196.819 33.5293 196.895 33.675 196.895 33.8474C196.895 33.9136 196.875 34.0064 196.835 34.1257L193.793 41.5416C193.687 41.8332 193.482 41.979 193.177 41.979C193.005 41.979 192.842 41.9193 192.69 41.8C192.538 41.6807 192.461 41.5349 192.461 41.3626C192.461 41.2301 192.481 41.1373 192.521 41.0843L193.495 39.0961C193.217 39.0696 193.025 38.9371 192.919 38.6985L190.97 34.1456C190.944 34.0395 190.93 33.96 190.93 33.907L190.93 33.907ZM189.36 39.2949C189.187 39.2949 189.032 39.2419 188.893 39.1359C188.753 39.0299 188.684 38.8774 188.684 38.6786L188.684 36.1735C188.684 35.5903 188.555 35.1595 188.296 34.8812C188.038 34.6029 187.696 34.4637 187.272 34.4637C186.729 34.4637 186.334 34.6393 186.089 34.9906C185.844 35.3418 185.721 35.7295 185.721 36.1536L185.721 38.6786C185.721 38.8774 185.652 39.0299 185.513 39.1359C185.374 39.2419 185.218 39.2949 185.045 39.2949C184.873 39.2949 184.717 39.2419 184.578 39.1359C184.439 39.0299 184.369 38.8774 184.369 38.6786L184.369 34.0064C184.369 33.7811 184.439 33.6121 184.578 33.4994C184.717 33.3868 184.873 33.3304 185.045 33.3304C185.218 33.3304 185.374 33.3868 185.513 33.4994C185.652 33.6121 185.721 33.7811 185.721 34.0064C185.947 33.7811 186.238 33.5955 186.596 33.4497C186.954 33.3039 187.292 33.231 187.61 33.231C188.352 33.231 188.942 33.4696 189.38 33.9468C189.817 34.4239 190.036 35.1264 190.036 36.0542L190.036 38.6786C190.036 38.8774 189.963 39.0299 189.817 39.1359C189.671 39.2419 189.519 39.2949 189.36 39.2949L189.36 39.2949ZM180.731 41.979C180.466 41.979 180.234 41.9458 180.035 41.8796C179.744 41.7735 179.598 41.5747 179.598 41.2831C179.598 41.0445 179.681 40.8722 179.846 40.7662C180.012 40.6601 180.168 40.6336 180.314 40.6867C180.38 40.6999 180.44 40.7099 180.493 40.7165C180.546 40.7231 180.599 40.7264 180.652 40.7264C180.877 40.7264 181.056 40.6535 181.188 40.5077C181.321 40.3619 181.387 40.1233 181.387 39.792L181.387 33.8474C181.387 33.6485 181.46 33.4961 181.606 33.3901C181.752 33.284 181.898 33.231 182.043 33.231C182.216 33.231 182.371 33.2874 182.511 33.4C182.65 33.5127 182.719 33.6618 182.719 33.8474L182.719 39.8317C182.719 40.521 182.524 41.0512 182.133 41.4223C181.742 41.7934 181.275 41.979 180.731 41.979L180.731 41.979ZM182.103 32.1375C181.851 32.1375 181.636 32.0547 181.457 31.889C181.278 31.7233 181.188 31.5212 181.188 31.2826C181.188 31.0573 181.278 30.8618 181.457 30.6961C181.636 30.5304 181.851 30.4476 182.103 30.4476C182.342 30.4476 182.547 30.5304 182.719 30.6961C182.892 30.8618 182.978 31.0573 182.978 31.2826C182.978 31.5212 182.892 31.7233 182.719 31.889C182.547 32.0547 182.342 32.1375 182.103 32.1375L182.103 32.1375ZM174.23 33.907C174.23 33.6949 174.303 33.5293 174.449 33.41C174.594 33.2907 174.753 33.231 174.926 33.231C175.204 33.231 175.403 33.3702 175.522 33.6485L177.073 37.4459C177.113 37.552 177.186 37.605 177.292 37.605C177.398 37.605 177.471 37.5586 177.51 37.4658L178.842 33.6684C178.948 33.3768 179.154 33.231 179.459 33.231C179.644 33.231 179.813 33.2907 179.966 33.41C180.118 33.5293 180.194 33.675 180.194 33.8474C180.194 33.9136 180.174 34.0064 180.135 34.1257L177.093 41.5416C176.987 41.8332 176.781 41.979 176.476 41.979C176.304 41.979 176.142 41.9193 175.989 41.8C175.837 41.6807 175.761 41.5349 175.761 41.3626C175.761 41.2301 175.781 41.1373 175.82 41.0843L176.795 39.0961C176.516 39.0696 176.324 38.9371 176.218 38.6985L174.27 34.1456C174.243 34.0395 174.23 33.96 174.23 33.907L174.23 33.907ZM171.307 36.1536L171.307 38.6786C171.307 38.8774 171.238 39.0299 171.098 39.1359C170.959 39.2419 170.804 39.2949 170.631 39.2949C170.459 39.2949 170.303 39.2419 170.164 39.1359C170.025 39.0299 169.955 38.8774 169.955 38.6786L169.955 34.0064C169.955 33.7811 170.025 33.6121 170.164 33.4994C170.303 33.3868 170.459 33.3304 170.631 33.3304C170.804 33.3304 170.959 33.3868 171.098 33.4994C171.238 33.6121 171.307 33.7811 171.307 34.0064L171.307 34.0859C171.493 33.8341 171.735 33.6287 172.033 33.4696C172.331 33.3106 172.646 33.231 172.977 33.231C173.136 33.231 173.295 33.2509 173.454 33.2907C173.613 33.3304 173.733 33.41 173.812 33.5293C173.892 33.6485 173.932 33.7811 173.932 33.9269C173.932 34.0992 173.875 34.2549 173.763 34.3941C173.65 34.5333 173.488 34.6029 173.275 34.6029C173.183 34.6029 173.087 34.5896 172.987 34.5631C172.888 34.5366 172.765 34.5233 172.619 34.5233C172.235 34.5233 171.92 34.6691 171.675 34.9607C171.43 35.2523 171.307 35.65 171.307 36.1536L171.307 36.1536ZM165.363 39.2949C164.793 39.2949 164.282 39.1624 163.832 38.8973C163.381 38.6322 163.03 38.2644 162.778 37.7939C162.526 37.3233 162.4 36.7965 162.4 36.2133C162.4 35.6433 162.526 35.133 162.778 34.6824C163.03 34.2317 163.381 33.8772 163.832 33.6187C164.282 33.3603 164.793 33.231 165.363 33.231C165.734 33.231 166.065 33.294 166.357 33.4199C166.648 33.5458 166.9 33.7082 167.112 33.907C167.139 33.7214 167.218 33.579 167.351 33.4795C167.483 33.3801 167.629 33.3304 167.788 33.3304C167.96 33.3304 168.116 33.3868 168.255 33.4994C168.395 33.6121 168.464 33.7811 168.464 34.0064L168.464 38.6786C168.464 38.8774 168.395 39.0299 168.255 39.1359C168.116 39.2419 167.96 39.2949 167.788 39.2949C167.616 39.2949 167.46 39.2419 167.321 39.1359C167.182 39.0299 167.112 38.8774 167.112 38.6786L167.112 38.5991C166.9 38.8111 166.648 38.9801 166.357 39.1061C166.065 39.232 165.734 39.2949 165.363 39.2949L165.363 39.2949ZM165.482 38.0623C165.986 38.0623 166.383 37.8933 166.675 37.5553C166.966 37.2173 167.112 36.77 167.112 36.2133C167.112 35.6831 166.966 35.259 166.675 34.9408C166.383 34.6227 165.986 34.4637 165.482 34.4637C164.965 34.4637 164.547 34.6227 164.229 34.9408C163.911 35.259 163.752 35.6831 163.752 36.2133C163.752 36.77 163.911 37.2173 164.229 37.5553C164.547 37.8933 164.965 38.0623 165.482 38.0623L165.482 38.0623ZM160.631 39.2949C160.458 39.2949 160.303 39.2419 160.164 39.1359C160.024 39.0299 159.955 38.8774 159.955 38.6786L159.955 36.1735C159.955 35.5903 159.826 35.1595 159.567 34.8812C159.309 34.6029 158.967 34.4637 158.543 34.4637C158 34.4637 157.605 34.6393 157.36 34.9906C157.115 35.3418 156.992 35.7295 156.992 36.1536L156.992 38.6786C156.992 38.8774 156.923 39.0299 156.784 39.1359C156.644 39.2419 156.489 39.2949 156.316 39.2949C156.144 39.2949 155.988 39.2419 155.849 39.1359C155.71 39.0299 155.64 38.8774 155.64 38.6786L155.64 34.0064C155.64 33.7811 155.71 33.6121 155.849 33.4994C155.988 33.3868 156.144 33.3304 156.316 33.3304C156.489 33.3304 156.644 33.3868 156.784 33.4994C156.923 33.6121 156.992 33.7811 156.992 34.0064C157.218 33.7811 157.509 33.5955 157.867 33.4497C158.225 33.3039 158.563 33.231 158.881 33.231C159.623 33.231 160.213 33.4696 160.651 33.9468C161.088 34.4239 161.307 35.1264 161.307 36.0542L161.307 38.6786C161.307 38.8774 161.234 39.0299 161.088 39.1359C160.942 39.2419 160.79 39.2949 160.631 39.2949L160.631 39.2949ZM148.682 33.907C148.682 33.6949 148.755 33.5293 148.901 33.41C149.046 33.2907 149.205 33.231 149.378 33.231C149.656 33.231 149.855 33.3702 149.974 33.6485L151.525 37.4459C151.565 37.552 151.638 37.605 151.744 37.605C151.85 37.605 151.923 37.5586 151.962 37.4658L153.294 33.6684C153.4 33.3768 153.606 33.231 153.911 33.231C154.096 33.231 154.265 33.2907 154.418 33.41C154.57 33.5293 154.646 33.675 154.646 33.8474C154.646 33.9136 154.626 34.0064 154.587 34.1257L151.545 41.5416C151.439 41.8332 151.233 41.979 150.928 41.979C150.756 41.979 150.594 41.9193 150.441 41.8C150.289 41.6807 150.213 41.5349 150.213 41.3626C150.213 41.2301 150.233 41.1373 150.272 41.0843L151.247 39.0961C150.968 39.0696 150.776 38.9371 150.67 38.6985L148.722 34.1456C148.695 34.0395 148.682 33.96 148.682 33.907L148.682 33.907ZM145.759 36.1536L145.759 38.6786C145.759 38.8774 145.69 39.0299 145.55 39.1359C145.411 39.2419 145.256 39.2949 145.083 39.2949C144.911 39.2949 144.755 39.2419 144.616 39.1359C144.477 39.0299 144.407 38.8774 144.407 38.6786L144.407 34.0064C144.407 33.7811 144.477 33.6121 144.616 33.4994C144.755 33.3868 144.911 33.3304 145.083 33.3304C145.256 33.3304 145.411 33.3868 145.55 33.4994C145.69 33.6121 145.759 33.7811 145.759 34.0064L145.759 34.0859C145.945 33.8341 146.187 33.6287 146.485 33.4696C146.783 33.3106 147.098 33.231 147.429 33.231C147.588 33.231 147.747 33.2509 147.906 33.2907C148.066 33.3304 148.185 33.41 148.264 33.5293C148.344 33.6485 148.384 33.7811 148.384 33.9269C148.384 34.0992 148.327 34.2549 148.215 34.3941C148.102 34.5333 147.94 34.6029 147.728 34.6029C147.635 34.6029 147.539 34.5896 147.439 34.5631C147.34 34.5366 147.217 34.5233 147.071 34.5233C146.687 34.5233 146.372 34.6691 146.127 34.9607C145.882 35.2523 145.759 35.65 145.759 36.1536L145.759 36.1536ZM140.51 39.2949C139.516 39.2949 138.741 39.01 138.184 38.44C137.628 37.8701 137.349 37.1013 137.349 36.1338C137.349 35.2855 137.631 34.5896 138.194 34.0462C138.758 33.5027 139.483 33.231 140.371 33.231C141.233 33.231 141.922 33.4795 142.439 33.9766C142.956 34.4736 143.214 35.0867 143.214 35.8156C143.214 36.1072 143.138 36.3259 142.986 36.4717C142.833 36.6175 142.638 36.6904 142.399 36.6904L138.94 36.6904C138.807 36.6904 138.761 36.7633 138.801 36.9091C138.907 37.2803 139.122 37.5685 139.447 37.774C139.772 37.9794 140.139 38.0822 140.55 38.0822C140.855 38.0822 141.15 38.0424 141.435 37.9629C141.72 37.8833 141.968 37.764 142.181 37.605C142.247 37.552 142.333 37.5255 142.439 37.5255C142.585 37.5255 142.717 37.5884 142.837 37.7143C142.956 37.8403 143.016 37.9894 143.016 38.1617C143.016 38.2412 143.002 38.3207 142.976 38.4003C142.949 38.4798 142.89 38.5593 142.797 38.6388C142.452 38.8907 142.084 39.063 141.693 39.1558C141.302 39.2485 140.908 39.2949 140.51 39.2949L140.51 39.2949ZM141.664 35.6566C141.743 35.6566 141.783 35.6168 141.783 35.5373C141.783 35.2324 141.647 34.9674 141.375 34.742C141.104 34.5167 140.769 34.404 140.371 34.404C140.027 34.404 139.699 34.4968 139.387 34.6824C139.076 34.868 138.887 35.1132 138.821 35.418C138.821 35.418 138.821 35.4246 138.821 35.4379C138.807 35.4909 138.804 35.5373 138.811 35.5771C138.817 35.6168 138.874 35.6367 138.98 35.6367L141.664 35.6566ZM135.222 39.2949C134.705 39.2949 134.281 39.1359 133.95 38.8178C133.618 38.4997 133.452 38.0225 133.452 37.3863L133.452 34.8613C133.452 34.7288 133.386 34.6625 133.254 34.6625L132.896 34.6625C132.723 34.6625 132.578 34.6062 132.458 34.4935C132.339 34.3808 132.279 34.2384 132.279 34.0661C132.279 33.8805 132.339 33.7281 132.458 33.6088C132.578 33.4895 132.723 33.4298 132.896 33.4298L133.254 33.4298C133.386 33.4298 133.452 33.3636 133.452 33.231L133.452 31.561C133.452 31.3754 133.515 31.2263 133.641 31.1136C133.767 31.001 133.923 30.9446 134.109 30.9446C134.307 30.9446 134.47 31.001 134.596 31.1136C134.722 31.2263 134.785 31.3754 134.785 31.561L134.785 33.231C134.785 33.3636 134.851 33.4298 134.983 33.4298L136.057 33.4298C136.216 33.4298 136.355 33.4895 136.475 33.6088C136.594 33.7281 136.653 33.8805 136.653 34.0661C136.653 34.2384 136.597 34.3808 136.484 34.4935C136.372 34.6062 136.223 34.6625 136.037 34.6625L134.983 34.6625C134.851 34.6625 134.785 34.7288 134.785 34.8613L134.785 37.2074C134.785 37.764 135.01 38.0424 135.461 38.0424C135.593 38.0424 135.732 38.0225 135.878 37.9827C136.024 37.943 136.123 37.9231 136.176 37.9231C136.362 37.9231 136.504 37.9827 136.604 38.102C136.703 38.2213 136.753 38.3605 136.753 38.5196C136.753 38.6388 136.72 38.7548 136.653 38.8675C136.587 38.9801 136.481 39.063 136.335 39.116C136.19 39.169 136.007 39.2121 135.789 39.2452C135.57 39.2784 135.381 39.2949 135.222 39.2949L135.222 39.2949ZM129.079 39.2949C128.084 39.2949 127.309 39.01 126.752 38.44C126.196 37.8701 125.917 37.1013 125.917 36.1338C125.917 35.2855 126.199 34.5896 126.762 34.0462C127.326 33.5027 128.051 33.231 128.939 33.231C129.801 33.231 130.49 33.4795 131.007 33.9766C131.524 34.4736 131.782 35.0867 131.782 35.8156C131.782 36.1072 131.706 36.3259 131.554 36.4717C131.401 36.6175 131.206 36.6904 130.967 36.6904L127.508 36.6904C127.375 36.6904 127.329 36.7633 127.369 36.9091C127.475 37.2803 127.69 37.5685 128.015 37.774C128.34 37.9794 128.707 38.0822 129.118 38.0822C129.423 38.0822 129.718 38.0424 130.003 37.9629C130.288 37.8833 130.536 37.764 130.749 37.605C130.815 37.552 130.901 37.5255 131.007 37.5255C131.153 37.5255 131.285 37.5884 131.405 37.7143C131.524 37.8403 131.584 37.9894 131.584 38.1617C131.584 38.2412 131.57 38.3207 131.544 38.4003C131.517 38.4798 131.458 38.5593 131.365 38.6388C131.02 38.8907 130.652 39.063 130.261 39.1558C129.87 39.2485 129.476 39.2949 129.079 39.2949L129.079 39.2949ZM130.232 35.6566C130.311 35.6566 130.351 35.6168 130.351 35.5373C130.351 35.2324 130.215 34.9674 129.943 34.742C129.672 34.5167 129.337 34.404 128.939 34.404C128.595 34.404 128.267 34.4968 127.955 34.6824C127.644 34.868 127.455 35.1132 127.389 35.418C127.389 35.418 127.389 35.4246 127.389 35.4379C127.375 35.4909 127.372 35.5373 127.379 35.5771C127.385 35.6168 127.442 35.6367 127.548 35.6367L130.232 35.6566ZM118.979 39.2949C118.462 39.2949 118.137 39.0497 118.004 38.5593L116.792 34.1058C116.778 34.0661 116.772 34.0263 116.772 33.9865C116.772 33.9468 116.772 33.9136 116.772 33.8871C116.772 33.7016 116.835 33.5458 116.961 33.4199C117.087 33.294 117.249 33.231 117.448 33.231C117.594 33.231 117.729 33.2675 117.855 33.3404C117.981 33.4133 118.057 33.5226 118.084 33.6684L118.82 37.1278C118.846 37.2736 118.906 37.3465 118.999 37.3465C119.091 37.3465 119.158 37.2736 119.197 37.1278L120.231 34.0661C120.297 33.8805 120.41 33.7446 120.569 33.6585C120.728 33.5723 120.894 33.5293 121.066 33.5293C121.239 33.5293 121.401 33.5723 121.553 33.6585C121.706 33.7446 121.808 33.8805 121.861 34.0661L122.895 37.1278C122.935 37.2736 123.001 37.3465 123.094 37.3465C123.187 37.3465 123.247 37.2736 123.273 37.1278L124.009 33.6684C124.035 33.5226 124.111 33.4133 124.237 33.3404C124.363 33.2675 124.499 33.231 124.645 33.231C124.844 33.231 125.006 33.294 125.132 33.4199C125.258 33.5458 125.321 33.7016 125.321 33.8871C125.321 33.9136 125.321 33.9468 125.321 33.9865C125.321 34.0263 125.314 34.0661 125.301 34.1058L124.088 38.5593C123.956 39.0497 123.631 39.2949 123.114 39.2949C122.889 39.2949 122.687 39.2254 122.508 39.0862C122.329 38.947 122.206 38.7714 122.14 38.5593L121.225 35.6566C121.172 35.4843 121.113 35.3981 121.046 35.3981C120.967 35.3981 120.901 35.4843 120.848 35.6566L119.953 38.5593C119.887 38.7714 119.764 38.947 119.585 39.0862C119.406 39.2254 119.204 39.2949 118.979 39.2949L118.979 39.2949ZM110.867 39.2949C110.35 39.2949 109.926 39.1359 109.594 38.8178C109.263 38.4997 109.097 38.0225 109.097 37.3863L109.097 34.8613C109.097 34.7288 109.031 34.6625 108.899 34.6625L108.541 34.6625C108.368 34.6625 108.223 34.6062 108.103 34.4935C107.984 34.3808 107.924 34.2384 107.924 34.0661C107.924 33.8805 107.984 33.7281 108.103 33.6088C108.223 33.4895 108.368 33.4298 108.541 33.4298L108.899 33.4298C109.031 33.4298 109.097 33.3636 109.097 33.231L109.097 31.561C109.097 31.3754 109.16 31.2263 109.286 31.1136C109.412 31.001 109.568 30.9446 109.754 30.9446C109.952 30.9446 110.115 31.001 110.241 31.1136C110.367 31.2263 110.429 31.3754 110.429 31.561L110.429 33.231C110.429 33.3636 110.496 33.4298 110.628 33.4298L111.702 33.4298C111.861 33.4298 112 33.4895 112.119 33.6088C112.239 33.7281 112.298 33.8805 112.298 34.0661C112.298 34.2384 112.242 34.3808 112.129 34.4935C112.017 34.6062 111.868 34.6625 111.682 34.6625L110.628 34.6625C110.496 34.6625 110.429 34.7288 110.429 34.8613L110.429 37.2074C110.429 37.764 110.655 38.0424 111.105 38.0424C111.238 38.0424 111.377 38.0225 111.523 37.9827C111.669 37.943 111.768 37.9231 111.821 37.9231C112.007 37.9231 112.149 37.9827 112.249 38.102C112.348 38.2213 112.398 38.3605 112.398 38.5196C112.398 38.6388 112.365 38.7548 112.298 38.8675C112.232 38.9801 112.126 39.063 111.98 39.116C111.834 39.169 111.652 39.2121 111.434 39.2452C111.215 39.2784 111.026 39.2949 110.867 39.2949L110.867 39.2949ZM104.723 39.2949C103.729 39.2949 102.954 39.01 102.397 38.44C101.841 37.8701 101.562 37.1013 101.562 36.1338C101.562 35.2855 101.844 34.5896 102.407 34.0462C102.971 33.5027 103.696 33.231 104.584 33.231C105.446 33.231 106.135 33.4795 106.652 33.9766C107.169 34.4736 107.427 35.0867 107.427 35.8156C107.427 36.1072 107.351 36.3259 107.199 36.4717C107.046 36.6175 106.851 36.6904 106.612 36.6904L103.153 36.6904C103.02 36.6904 102.974 36.7633 103.014 36.9091C103.12 37.2803 103.335 37.5685 103.66 37.774C103.985 37.9794 104.352 38.0822 104.763 38.0822C105.068 38.0822 105.363 38.0424 105.648 37.9629C105.933 37.8833 106.181 37.764 106.394 37.605C106.46 37.552 106.546 37.5255 106.652 37.5255C106.798 37.5255 106.93 37.5884 107.05 37.7143C107.169 37.8403 107.229 37.9894 107.229 38.1617C107.229 38.2412 107.215 38.3207 107.189 38.4003C107.162 38.4798 107.103 38.5593 107.01 38.6388C106.665 38.8907 106.297 39.063 105.906 39.1558C105.515 39.2485 105.121 39.2949 104.723 39.2949L104.723 39.2949ZM105.877 35.6566C105.956 35.6566 105.996 35.6168 105.996 35.5373C105.996 35.2324 105.86 34.9674 105.588 34.742C105.317 34.5167 104.982 34.404 104.584 34.404C104.24 34.404 103.912 34.4968 103.6 34.6824C103.289 34.868 103.1 35.1132 103.034 35.418C103.034 35.418 103.034 35.4246 103.034 35.4379C103.02 35.4909 103.017 35.5373 103.024 35.5771C103.03 35.6168 103.087 35.6367 103.193 35.6367L105.877 35.6566ZM99.7928 39.2949C99.6205 39.2949 99.4647 39.2419 99.3256 39.1359C99.1864 39.0299 99.1168 38.8774 99.1168 38.6786L99.1168 36.1735C99.1168 35.5903 98.9876 35.1595 98.7291 34.8812C98.4707 34.6029 98.1293 34.4637 97.7052 34.4637C97.1618 34.4637 96.7675 34.6393 96.5223 34.9906C96.277 35.3418 96.1544 35.7295 96.1544 36.1536L96.1544 38.6786C96.1544 38.8774 96.0849 39.0299 95.9457 39.1359C95.8065 39.2419 95.6508 39.2949 95.4785 39.2949C95.3062 39.2949 95.1504 39.2419 95.0112 39.1359C94.8721 39.0299 94.8025 38.8774 94.8025 38.6786L94.8025 34.0064C94.8025 33.7811 94.8721 33.6121 95.0112 33.4994C95.1504 33.3868 95.3062 33.3304 95.4785 33.3304C95.6508 33.3304 95.8065 33.3868 95.9457 33.4994C96.0849 33.6121 96.1544 33.7811 96.1544 34.0064C96.3798 33.7811 96.6714 33.5955 97.0292 33.4497C97.3871 33.3039 97.7251 33.231 98.0432 33.231C98.7854 33.231 99.3753 33.4696 99.8127 33.9468C100.25 34.4239 100.469 35.1264 100.469 36.0542L100.469 38.6786C100.469 38.8774 100.396 39.0299 100.25 39.1359C100.104 39.2419 99.9518 39.2949 99.7928 39.2949L99.7928 39.2949ZM92.5161 39.2949C92.3438 39.2949 92.188 39.2419 92.0489 39.1359C91.9097 39.0299 91.8401 38.8774 91.8401 38.6786L91.8401 33.907C91.8401 33.6817 91.9097 33.5127 92.0489 33.4C92.188 33.2874 92.3438 33.231 92.5161 33.231C92.6884 33.231 92.8441 33.2874 92.9833 33.4C93.1225 33.5127 93.1921 33.6817 93.1921 33.907L93.1921 38.6786C93.1921 38.8774 93.1225 39.0299 92.9833 39.1359C92.8441 39.2419 92.6884 39.2949 92.5161 39.2949L92.5161 39.2949ZM92.536 32.1375C92.2841 32.1375 92.0688 32.0547 91.8898 31.889C91.7109 31.7233 91.6214 31.5212 91.6214 31.2826C91.6214 31.0573 91.7109 30.8618 91.8898 30.6961C92.0688 30.5304 92.2841 30.4476 92.536 30.4476C92.7746 30.4476 92.98 30.5304 93.1523 30.6961C93.3246 30.8618 93.4108 31.0573 93.4108 31.2826C93.4108 31.5212 93.3246 31.7233 93.1523 31.889C92.98 32.0547 92.7746 32.1375 92.536 32.1375L92.536 32.1375ZM87.665 39.2949C87.2938 39.2949 86.9625 39.232 86.6709 39.1061C86.3793 38.9801 86.1274 38.8111 85.9154 38.5991L85.9154 38.6786C85.9154 38.8774 85.8458 39.0299 85.7066 39.1359C85.5674 39.2419 85.4117 39.2949 85.2394 39.2949C85.0671 39.2949 84.9113 39.2419 84.7722 39.1359C84.633 39.0299 84.5634 38.8774 84.5634 38.6786L84.5634 31.1236C84.5634 30.8982 84.633 30.7292 84.7722 30.6166C84.9113 30.5039 85.0671 30.4476 85.2394 30.4476C85.4117 30.4476 85.5674 30.5039 85.7066 30.6166C85.8458 30.7292 85.9154 30.8982 85.9154 31.1236L85.9154 33.907C86.1274 33.6949 86.3793 33.5293 86.6709 33.41C86.9625 33.2907 87.2938 33.231 87.665 33.231C88.2482 33.231 88.7618 33.3603 89.2058 33.6187C89.6498 33.8772 89.9977 34.2317 90.2496 34.6824C90.5014 35.133 90.6273 35.6433 90.6273 36.2133C90.6273 36.7965 90.5014 37.3233 90.2496 37.7939C89.9977 38.2644 89.6498 38.6322 89.2058 38.8973C88.7618 39.1624 88.2482 39.2949 87.665 39.2949L87.665 39.2949ZM87.5457 38.0623C88.0626 38.0623 88.4801 37.8933 88.7982 37.5553C89.1163 37.2173 89.2754 36.77 89.2754 36.2133C89.2754 35.6831 89.1163 35.259 88.7982 34.9408C88.4801 34.6227 88.0626 34.4637 87.5457 34.4637C87.042 34.4637 86.6444 34.6227 86.3528 34.9408C86.0612 35.259 85.9154 35.6831 85.9154 36.2133C85.9154 36.77 86.0612 37.2173 86.3528 37.5553C86.6444 37.8933 87.042 38.0623 87.5457 38.0623L87.5457 38.0623ZM79.9707 39.2949C79.4008 39.2949 78.8905 39.1624 78.4399 38.8973C77.9892 38.6322 77.638 38.2644 77.3861 37.7939C77.1343 37.3233 77.0084 36.7965 77.0084 36.2133C77.0084 35.6433 77.1343 35.133 77.3861 34.6824C77.638 34.2317 77.9892 33.8772 78.4399 33.6187C78.8905 33.3603 79.4008 33.231 79.9707 33.231C80.3419 33.231 80.6732 33.294 80.9648 33.4199C81.2564 33.5458 81.5083 33.7082 81.7203 33.907C81.7468 33.7214 81.8264 33.579 81.9589 33.4795C82.0915 33.3801 82.2373 33.3304 82.3963 33.3304C82.5686 33.3304 82.7244 33.3868 82.8635 33.4994C83.0027 33.6121 83.0723 33.7811 83.0723 34.0064L83.0723 38.6786C83.0723 38.8774 83.0027 39.0299 82.8635 39.1359C82.7244 39.2419 82.5686 39.2949 82.3963 39.2949C82.224 39.2949 82.0683 39.2419 81.9291 39.1359C81.7899 39.0299 81.7203 38.8774 81.7203 38.6786L81.7203 38.5991C81.5083 38.8111 81.2564 38.9801 80.9648 39.1061C80.6732 39.232 80.3419 39.2949 79.9707 39.2949L79.9707 39.2949ZM80.09 38.0623C80.5937 38.0623 80.9913 37.8933 81.2829 37.5553C81.5745 37.2173 81.7203 36.77 81.7203 36.2133C81.7203 35.6831 81.5745 35.259 81.2829 34.9408C80.9913 34.6227 80.5937 34.4637 80.09 34.4637C79.5731 34.4637 79.1556 34.6227 78.8375 34.9408C78.5194 35.259 78.3603 35.6831 78.3603 36.2133C78.3603 36.77 78.5194 37.2173 78.8375 37.5553C79.1556 37.8933 79.5731 38.0623 80.09 38.0623L80.09 38.0623ZM72.2368 39.2949C71.4813 39.2949 70.7953 39.1127 70.179 38.7482C69.5627 38.3837 69.0723 37.8867 68.7078 37.2571C68.3433 36.6275 68.161 35.9151 68.161 35.1198C68.161 34.2848 68.3433 33.5524 68.7078 32.9229C69.0723 32.2933 69.5693 31.8062 70.1989 31.4616C70.8285 31.1169 71.5343 30.9446 72.3163 30.9446C72.8597 30.9446 73.3634 31.0142 73.8273 31.1534C74.2912 31.2926 74.7286 31.5146 75.1395 31.8194C75.2986 31.952 75.3781 32.1309 75.3781 32.3562C75.3781 32.5285 75.3217 32.6777 75.2091 32.8036C75.0964 32.9295 74.9473 32.9924 74.7617 32.9924C74.6425 32.9924 74.5099 32.9461 74.3641 32.8533C74.046 32.6147 73.7146 32.4424 73.37 32.3363C73.0254 32.2303 72.6808 32.1773 72.3362 32.1773C71.5277 32.1773 70.8616 32.4457 70.3381 32.9825C69.8145 33.5193 69.5527 34.2317 69.5527 35.1198C69.5527 35.9813 69.8013 36.6871 70.2983 37.2372C70.7953 37.7872 71.4415 38.0623 72.2368 38.0623C72.7139 38.0623 73.1348 37.9761 73.4993 37.8038C73.8638 37.6315 74.1554 37.4095 74.3741 37.1378C74.5928 36.8661 74.7154 36.5977 74.7419 36.3326C74.7419 36.1205 74.6358 36.0145 74.4238 36.0145L73.0122 36.0145C72.5748 36.0145 72.3561 35.809 72.3561 35.3981C72.3561 35.2126 72.4157 35.0668 72.535 34.9607C72.6543 34.8547 72.8133 34.8017 73.0122 34.8017L75.2787 34.8017C75.5703 34.8017 75.7823 34.8646 75.9149 34.9906C76.0474 35.1165 76.1137 35.3584 76.1137 35.7162C76.1137 36.3657 75.9513 36.9622 75.6266 37.5056C75.3019 38.049 74.8479 38.4831 74.2647 38.8078C73.6815 39.1326 73.0055 39.2949 72.2368 39.2949L72.2368 39.2949Z" id="Gabinet-weterynaryjny" fill="#000000" stroke="none" />
      </g>
    </g>
  </g>
</svg>