<?xml version="1.0" encoding="utf-8"?>
<svg width="310px" height="70px" viewBox="0 0 310 70" version="1.1" xmlns:xlink="http://www.w3.org/1999/xlink" xmlns="http://www.w3.org/2000/svg">
  <defs>
    <path d="M0 0L67.8745 0L67.8745 67.8745L0 67.8745L0 0Z" id="path_1" />
    <rect width="310" height="70" id="artboard_1" />
    <clipPath id="clip_1">
      <use xlink:href="#artboard_1" clip-rule="evenodd" />
    </clipPath>
    <clipPath id="mask_1">
      <use xlink:href="#path_1" />
    </clipPath>
  </defs>
  <g id="Pixelbook" clip-path="url(#clip_1)">
    <use xlink:href="#artboard_1" stroke="none" fill="#FFFFFF" fill-opacity="0" />
    <g id="Grupuj-4" transform="translate(5 1)" artboard="b30e0be5-df77-4b36-98be-1ff008831527">
      <g id="dog">
        <path d="M0 0L67.8745 0L67.8745 67.8745L0 67.8745L0 0Z" id="Tło" fill="#FFFFFF" fill-opacity="0" fill-rule="evenodd" stroke="none" />
        <g clip-path="url(#mask_1)">
          <path d="M14.6222 7.01281C13.4688 7.1984 12.0504 7.6889 10.8705 8.29872C7.60937 9.98232 4.16262 13.6279 3.10208 16.5179C2.7574 17.4591 2.71763 17.7243 2.71763 19.156C2.71763 20.601 2.74415 20.8131 3.07556 21.5024C3.26116 21.9134 3.67212 22.5099 3.96377 22.8414C4.53381 23.4644 5.87274 24.2598 6.34998 24.2598C6.50906 24.2598 6.62837 24.3129 6.62837 24.3791C6.62837 24.4587 6.24393 25.2939 5.76668 26.2616C4.85197 28.1175 4.74591 28.608 5.17013 29.0323C5.50155 29.3637 6.24393 29.3902 6.52232 29.0588C6.62837 28.9395 7.11887 28.038 7.59611 27.0703C10.0354 22.1785 13.5616 17.4724 16.6637 14.9669C23.3716 9.58462 33.7384 11.2947 38.4446 18.5859L38.9483 19.3416L38.4313 19.8984C38.1529 20.2033 37.6889 20.9324 37.3973 21.5289C36.0583 24.2333 35.9655 27.004 37.1321 29.3106L37.5431 30.1326L37.0658 31.5378C36.1776 34.2422 36.1246 37.1056 36.9465 39.6907C37.4636 41.3345 38.4711 43.2302 39.3328 44.1582L39.6377 44.4896L38.776 45.2585C36.7742 47.0349 35.0773 49.7525 34.1626 52.6955C33.5263 54.7371 33.354 55.8772 33.3407 58.0778L33.3407 60.1458L33.7649 60.9545L34.1891 61.7764L30.875 61.7764L27.574 61.7764L27.985 61.0738C30.0398 57.6005 31.1533 52.8679 31.1533 47.658C31.1533 45.696 31.0208 45.0199 30.6231 44.8078C30.2519 44.6089 29.7481 44.6487 29.4432 44.9006C29.1913 45.1259 29.1648 45.3115 29.1118 48.0557C28.9925 53.6765 28.0248 57.3619 25.8109 60.7556L25.1348 61.7764L22.6558 61.7764L20.1635 61.7764L20.0707 61.0208C20.0177 60.5966 20.0177 58.7539 20.0707 56.9377C20.19 52.152 20.601 48.7053 21.2771 46.5577C21.635 45.4176 21.5555 44.9801 20.9324 44.7548C20.0309 44.4366 19.62 44.9271 19.1162 46.9951C18.4269 49.7393 18.122 53.0667 18.1087 57.9585L18.0955 61.7764L16.213 61.7764L14.3173 61.7764L13.9063 61.2196C12.8723 59.8012 11.9708 57.5475 11.5069 55.2541C11.255 53.9682 11.2019 53.3584 11.2152 50.9059C11.2152 48.9041 11.2815 47.6845 11.4406 46.8228C11.6527 45.5502 11.6394 45.3115 11.2947 44.9006C11.0694 44.6487 10.4596 44.5957 10.0751 44.8078C9.59788 45.0729 9.30623 46.677 9.18692 49.8453C9.02784 54.1273 9.78348 57.9982 11.3345 60.8087C11.5864 61.2727 11.7985 61.6836 11.7985 61.7101C11.7985 61.8692 8.60363 61.7499 7.83473 61.5776C5.13036 60.928 2.91648 58.6743 2.29342 55.9169C1.97525 54.5117 1.97525 48.2678 2.29342 45.6032C2.81043 41.308 3.72514 37.0791 4.90499 33.6191C5.40875 32.1211 5.42201 31.6571 4.95802 31.2992C4.04331 30.5833 3.55281 31.1401 2.74415 33.8047C0.914715 39.8763 0 45.7225 0 51.224C0.0132567 56.5665 0.64958 58.7141 2.91648 60.981C4.05656 62.1211 5.18339 62.8237 6.69465 63.3407L7.75519 63.6986L33.0093 63.6986L58.2634 63.6986L59.1251 63.2877C60.1856 62.7839 61.1003 61.8957 61.6041 60.875C61.9355 60.1989 61.9753 59.947 62.015 58.5948C62.0681 56.6991 61.7764 54.6973 61.392 54.3129C61.0606 53.9682 60.411 53.9682 60.0398 54.2996C59.7879 54.525 59.7746 54.6443 59.8409 55.3469C59.8807 55.7844 59.9602 56.8847 60 57.7994C60.0928 59.6818 59.9735 60.1061 59.0986 60.9412C58.3959 61.6173 57.7596 61.7764 55.6651 61.7764L53.8224 61.7764L54.0742 61.1268C54.7106 59.5228 54.989 56.5798 54.7106 54.2996C54.525 52.8811 53.7826 52.3509 52.9474 53.0667L52.5895 53.3716L52.7486 54.9359C53.0005 57.3221 52.6955 59.5493 51.9001 61.1003L51.5687 61.7764L50.1105 61.7764L48.6522 61.7764L48.6522 57.6005L48.6522 53.4114L48.3208 53.0932C47.9099 52.669 47.4061 52.669 46.9951 53.0932L46.6637 53.4114L46.6637 57.6005L46.6637 61.7764L45.2055 61.7764L43.7472 61.7764L43.4689 61.2196C42.6204 59.5493 42.3023 57.4415 42.5541 55.0685C42.6867 53.7163 42.6867 53.5042 42.5011 53.2258C42.1167 52.6425 41.2682 52.6293 40.897 53.1993C40.6319 53.6103 40.3933 56.1953 40.4993 57.5343C40.6054 58.8334 40.8838 60.2386 41.2417 61.1401L41.4936 61.7764L39.6509 61.7764C37.5564 61.7764 36.92 61.6173 36.2174 60.9412C35.4485 60.1989 35.2364 59.6421 35.2497 58.3031C35.2762 55.0685 36.3367 51.5952 38.0734 49.0897C38.7892 48.0557 40.1282 46.6107 40.738 46.1997C41.0694 45.9876 41.0959 45.9876 41.7853 46.5046C43.3628 47.6978 45.5104 48.5992 47.4856 48.9174C48.1352 49.0234 49.1825 49.0632 50.3358 49.0102C52.2713 48.9439 53.5705 48.6522 55.2276 47.9231L55.9832 47.5917L56.3146 47.8833C56.7521 48.2943 57.9717 50.1635 58.3694 51.0119C58.8202 51.9664 59.0853 52.2316 59.6023 52.2316C60.0796 52.2316 60.5833 51.7411 60.5833 51.2638C60.5833 50.8661 59.3107 48.5197 58.5153 47.4591L57.7994 46.5046L58.966 45.3646C61.0738 43.27 62.2006 41.1754 62.89 38.0203C62.943 37.7685 63.1816 37.5563 63.7252 37.2514C65.7667 36.0981 67.2117 33.924 67.6889 31.2859C68.1397 28.7671 67.8613 27.6668 66.5223 26.7654C64.2289 25.2011 61.4583 24.6443 59.0986 25.2408L58.2236 25.4662L57.5077 24.9359C55.4264 23.3451 52.2183 22.3509 49.4079 22.4171L48.1087 22.4569L47.7375 21.9929C47.3663 21.5555 47.3531 21.4892 47.2868 19.5537C47.2073 17.3 47.0084 16.3323 46.2925 14.8608C45.4043 13.0314 43.84 11.7985 41.7985 11.3213C40.1016 10.9235 36.9863 11.2417 34.8785 12.0239C34.6399 12.1167 34.335 12.0239 33.4202 11.5731C30.9943 10.3535 29.0455 9.90278 25.9567 9.87627L23.6103 9.84975L22.7751 9.22669C21.7278 8.43128 20.1105 7.64913 18.8246 7.2912C17.711 6.9863 15.6562 6.85373 14.6222 7.01281L14.6222 7.01281ZM18.3341 9.21343C19.1162 9.41228 21.118 10.3403 21.0119 10.4463C20.9854 10.4728 20.5612 10.6452 20.084 10.8042C17.7773 11.6129 15.643 13.0181 13.5882 15.0729C12.1962 16.4649 10.2342 18.8909 8.90854 20.8396C7.86125 22.3774 7.62263 22.5497 6.69466 22.2846C5.62086 21.9929 4.77243 20.9059 4.57358 19.6067C4.30844 17.8303 5.84623 14.9271 8.25895 12.6337C10.4728 10.5391 12.6602 9.346 15.0464 8.96155C15.7225 8.8555 17.5254 8.98806 18.3341 9.21343L18.3341 9.21343ZM41.7057 13.323C43.7738 13.9328 45.1127 16.0009 45.2983 18.8776C45.3778 20.0044 45.3646 20.0574 45.1259 19.9647C43.9991 19.5272 42.8325 19.209 42.0371 19.1427C41.1887 19.0632 41.0561 19.0102 40.8573 18.7053C39.7967 16.9686 39.0013 15.9213 37.9541 14.8608C37.278 14.1715 36.7344 13.5882 36.761 13.5749C36.7875 13.5484 37.1587 13.4423 37.5961 13.3363C38.6567 13.0844 40.8705 13.0711 41.7057 13.323L41.7057 13.323ZM43.5351 21.5157C44.4101 21.8471 45.9479 22.7751 45.8153 22.9076C45.7755 22.9342 45.2718 23.1595 44.7017 23.3849C42.6867 24.2068 40.8308 25.5723 39.3593 27.3487L38.7229 28.1043L38.5108 27.4149C38.0203 25.7313 38.3915 23.7031 39.5449 21.7543L39.9691 21.0517L41.2948 21.118C42.2758 21.1578 42.8591 21.2638 43.5351 21.5157L43.5351 21.5157ZM52.4967 24.7371C54.4587 25.2276 56.7124 26.5798 58.0115 28.0115C60.053 30.2651 61.034 32.8369 61.0208 35.8595C61.0075 37.8347 60.7159 39.0544 59.7879 40.9236C58.4225 43.6942 55.6518 45.9479 52.6425 46.73C50.4021 47.3133 48.2413 47.247 46.1335 46.5312C40.7777 44.7282 37.4636 39.1869 38.4976 33.7782C39.4256 28.9792 43.0712 25.4132 47.9496 24.525C48.8644 24.3526 51.4892 24.4719 52.4967 24.7371L52.4967 24.7371ZM62.9695 27.2691C63.7915 27.4945 64.8387 27.985 65.4618 28.4622C65.8595 28.7539 65.886 28.8334 65.886 29.536C65.8728 31.4317 65.1304 33.3672 63.924 34.5868L63.1949 35.3292L63.1021 34.9315C63.0491 34.7061 62.9298 34.0698 62.8502 33.4998C62.5586 31.6306 61.6041 29.3769 60.4375 27.8259L59.9072 27.11L60.411 27.0305C61.0738 26.9244 62.0548 27.0172 62.9695 27.2691L62.9695 27.2691ZM42.7132 30.981C42.4083 31.2461 42.0239 32.426 42.0239 33.1021C42.0239 33.9373 42.9651 34.3747 43.5882 33.8312C43.8666 33.6058 44.2775 32.2934 44.2775 31.6571C44.2775 31.2461 43.7605 30.7556 43.323 30.7556C43.1374 30.7556 42.859 30.8617 42.7132 30.981L42.7132 30.981ZM57.0438 34.5338C56.6991 34.6796 56.593 34.8387 56.4074 35.4883C56.2881 35.9125 56.1556 36.3632 56.1291 36.4958C55.917 37.1984 56.7521 37.9275 57.4547 37.6624C57.8392 37.5033 58.0513 37.1056 58.3429 35.9523C58.502 35.3159 58.4888 35.2364 58.2501 34.905C57.8922 34.441 57.5343 34.3217 57.0438 34.5338L57.0438 34.5338ZM45.696 35.2894C45.5767 35.3822 45.4176 35.6341 45.3381 35.833C44.7017 37.5696 46.5842 39.5979 48.4136 39.1339C48.9306 39.0013 49.0102 39.0146 49.3151 39.3062C50.7203 40.6452 53.1595 40.0088 53.7031 38.1662C53.8489 37.7022 53.8356 37.5961 53.597 37.278C53.1198 36.6416 52.1918 36.7212 51.9002 37.437C51.4892 38.418 50.5082 38.1794 50.5082 37.1056C50.5082 35.8595 49.0765 35.5015 48.5992 36.6416C48.3739 37.1984 47.9629 37.3575 47.5254 37.0658C47.2603 36.8935 47.194 36.7344 47.194 36.2572C47.194 35.833 47.1145 35.5811 46.9289 35.3955C46.624 35.0906 46.0274 35.0508 45.696 35.2894L45.696 35.2894ZM17.4061 19.1162C17.0879 19.2753 16.9421 19.5802 16.6505 20.7203C16.3721 21.8604 16.6505 22.4039 17.4989 22.4039C18.122 22.4039 18.3473 22.152 18.6125 21.1312C18.9174 19.9514 18.8909 19.5537 18.4799 19.2355C18.0955 18.9306 17.8436 18.9041 17.4061 19.1162L17.4061 19.1162ZM23.2921 22.6955C22.6027 23.2391 22.9342 24.5117 23.7826 24.525C23.9947 24.525 24.008 24.5912 23.9284 25.0155C23.7959 25.7976 23.5307 26.1158 23.0137 26.1158C22.4172 26.1158 22.1388 25.7711 22.1388 25.0287C22.1388 24.3129 21.7411 23.8621 21.118 23.8621C20.4949 23.8621 20.1502 24.3659 20.1502 25.2806C20.1502 26.4339 20.6938 27.3089 21.7676 27.8524C22.2978 28.1175 23.3584 28.1838 23.9019 27.985C24.167 27.8789 24.2864 27.9187 24.5382 28.1971C25.7048 29.4432 27.9585 29.2841 28.9395 27.8922C29.1383 27.6005 29.3372 27.1498 29.3769 26.8847C29.4432 26.4737 29.4035 26.3411 29.1118 26.0495C28.5815 25.5192 28.038 25.6253 27.5077 26.3809C27.1631 26.8714 27.004 26.9907 26.6063 27.0172C25.9434 27.0703 25.6253 26.6195 25.7976 25.8109C25.9169 25.2541 25.9169 25.2541 26.54 25.2143C27.0305 25.1878 27.2294 25.095 27.4415 24.8299C28.1043 23.9814 27.6005 23.4777 25.5855 22.9342C23.8886 22.4967 23.6103 22.4569 23.2921 22.6955L23.2921 22.6955ZM32.9165 23.3584C32.7574 23.5307 32.5453 24.1007 32.3995 24.6973C32.1741 25.7048 32.1741 25.7313 32.4393 26.0893C32.6116 26.3146 32.8502 26.4604 33.1153 26.487C33.7517 26.5532 34.1229 26.0893 34.4145 24.8829C34.6531 23.8754 34.6399 23.8489 34.3747 23.4909C34.0168 23.0004 33.3142 22.9342 32.9165 23.3584L32.9165 23.3584Z" id="Group" fill="#000000" fill-rule="evenodd" stroke="none" />
        </g>
      </g>
      <g id="Grupuj-3" transform="translate(70.790985 12.944155)">
        <path d="M226.955 29.4963C226.381 29.4963 225.862 29.3195 225.398 28.966C224.934 28.6125 224.702 28.1043 224.702 27.4415L224.702 2.25365C224.702 1.50243 224.934 0.939021 225.398 0.563412C225.862 0.187802 226.381 0 226.955 0C227.53 0 228.049 0.187802 228.513 0.563412C228.977 0.939021 229.209 1.50243 229.209 2.25365L229.209 27.4415C229.209 28.1043 228.977 28.6125 228.513 28.966C228.049 29.3195 227.53 29.4963 226.955 29.4963L226.955 29.4963ZM210.848 29.4963C209.611 29.4963 208.506 29.2864 207.534 28.8666C206.562 28.4468 205.723 27.8833 205.015 27.1763L205.015 36.3898C205.015 37.0526 204.783 37.5608 204.319 37.9143C203.856 38.2678 203.336 38.4445 202.762 38.4445C202.187 38.4445 201.668 38.2678 201.204 37.9143C200.74 37.5608 200.508 37.0526 200.508 36.3898L200.508 11.8648C200.508 11.1136 200.74 10.5502 201.204 10.1745C201.668 9.79894 202.187 9.61114 202.762 9.61114C203.292 9.61114 203.778 9.77685 204.22 10.1083C204.662 10.4397 204.927 10.9147 205.015 11.5334C205.723 10.8705 206.562 10.3292 207.534 9.90941C208.506 9.48962 209.611 9.27972 210.848 9.27972C212.793 9.27972 214.505 9.71056 215.985 10.5723C217.466 11.4339 218.626 12.616 219.465 14.1184C220.305 15.6209 220.725 17.3221 220.725 19.2223C220.725 21.1666 220.305 22.9231 219.465 24.4918C218.626 26.0605 217.466 27.2868 215.985 28.1706C214.505 29.0544 212.793 29.4963 210.848 29.4963L210.848 29.4963ZM210.451 25.3867C212.174 25.3867 213.566 24.8232 214.627 23.6964C215.687 22.5696 216.217 21.0782 216.217 19.2223C216.217 17.4547 215.687 16.0407 214.627 14.9801C213.566 13.9196 212.174 13.3893 210.451 13.3893C208.772 13.3893 207.446 13.9196 206.474 14.9801C205.502 16.0407 205.015 17.4547 205.015 19.2223C205.015 21.0782 205.502 22.5696 206.474 23.6964C207.446 24.8232 208.772 25.3867 210.451 25.3867L210.451 25.3867ZM191.295 29.8277C190.455 29.8277 189.737 29.5515 189.141 28.9991C188.544 28.4468 188.246 27.795 188.246 27.0438C188.246 26.2483 188.544 25.5745 189.141 25.0221C189.737 24.4697 190.455 24.1936 191.295 24.1936C192.09 24.1936 192.775 24.4697 193.35 25.0221C193.924 25.5745 194.211 26.2483 194.211 27.0438C194.211 27.795 193.924 28.4468 193.35 28.9991C192.775 29.5515 192.09 29.8277 191.295 29.8277L191.295 29.8277ZM179.629 29.4963C179.054 29.4963 178.535 29.3195 178.071 28.966C177.607 28.6125 177.375 28.1043 177.375 27.4415L177.375 11.5334C177.375 10.7822 177.607 10.2187 178.071 9.84313C178.535 9.46752 179.054 9.27972 179.629 9.27972C180.203 9.27972 180.723 9.46752 181.187 9.84313C181.65 10.2187 181.882 10.7821 181.882 11.5334L181.882 27.4415C181.882 28.1043 181.65 28.6125 181.187 28.966C180.723 29.3195 180.203 29.4963 179.629 29.4963L179.629 29.4963ZM179.695 5.63412C178.856 5.63412 178.137 5.35793 177.541 4.80557C176.944 4.25321 176.646 3.57932 176.646 2.78392C176.646 2.0327 176.944 1.38091 177.541 0.828546C178.137 0.276183 178.856 0 179.695 0C180.491 0 181.175 0.276183 181.75 0.828546C182.324 1.38091 182.612 2.0327 182.612 2.78392C182.612 3.57932 182.324 4.25321 181.75 4.80557C181.175 5.35793 180.491 5.63412 179.695 5.63412L179.695 5.63412ZM164.914 29.4963C161.953 29.4963 159.523 28.5462 157.623 26.646C155.723 24.7459 154.772 22.2713 154.772 19.2223C154.772 17.278 155.214 15.5546 156.098 14.0521C156.982 12.5497 158.186 11.3787 159.711 10.5391C161.235 9.69951 162.97 9.27972 164.914 9.27972C167.565 9.27972 169.819 9.89837 171.675 11.1357C172.293 11.5334 172.603 12.0857 172.603 12.7928C172.603 13.4998 172.382 14.0521 171.94 14.4498C171.498 14.8476 170.99 15.0464 170.415 15.0464C170.018 15.0464 169.664 14.958 169.355 14.7813C167.72 13.6765 166.195 13.1905 164.781 13.323C163.058 13.4998 161.71 14.0853 160.738 15.0795C159.766 16.0738 159.28 17.4768 159.28 19.2886C159.28 21.1887 159.799 22.6801 160.837 23.7627C161.876 24.8453 163.345 25.3867 165.245 25.3867C166.924 25.3867 168.604 24.7459 170.283 23.4644C170.636 23.1551 171.1 23.0004 171.675 23.0004C172.338 23.0004 172.835 23.2545 173.166 23.7627C173.498 24.2709 173.663 24.7459 173.663 25.1878C173.663 25.8065 173.376 26.3809 172.802 26.9112C171.697 27.8833 170.482 28.5572 169.156 28.9328C167.83 29.3084 166.416 29.4963 164.914 29.4963L164.914 29.4963ZM143.769 29.4963C142.488 29.4963 141.184 29.3305 139.859 28.9991C138.533 28.6677 137.362 28.1485 136.346 27.4415C135.815 26.9554 135.55 26.4251 135.55 25.8506C135.55 25.2762 135.782 24.768 136.246 24.3261C136.71 23.8842 137.229 23.6633 137.804 23.6633C138.113 23.6633 138.422 23.7517 138.732 23.9284C139.527 24.4145 140.444 24.8012 141.483 25.0884C142.521 25.3756 143.504 25.5192 144.432 25.5192C145.316 25.5192 146.078 25.3646 146.719 25.0552C147.36 24.7459 147.68 24.2377 147.68 23.5307C147.68 22.8237 147.371 22.2934 146.752 21.9399C146.133 21.5864 145.073 21.3213 143.571 21.1445C142.952 21.0561 142.212 20.9457 141.35 20.8131C140.488 20.6805 139.638 20.4375 138.798 20.084C137.958 19.7304 137.251 19.2002 136.677 18.4932C136.103 17.7861 135.815 16.8361 135.815 15.643C135.815 13.6986 136.533 12.152 137.97 11.0031C139.406 9.85418 141.339 9.27972 143.769 9.27972C145.183 9.27972 146.52 9.45648 147.78 9.80999C149.039 10.1635 149.978 10.6054 150.597 11.1357C151.083 11.5334 151.326 11.9974 151.326 12.5276C151.326 13.1021 151.127 13.6103 150.729 14.0521C150.331 14.494 149.845 14.715 149.271 14.715C148.962 14.715 148.674 14.6487 148.409 14.5161C147.702 14.1184 146.918 13.8202 146.056 13.6213C145.194 13.4225 144.366 13.323 143.571 13.323C142.643 13.323 141.858 13.4666 141.217 13.7539C140.577 14.0411 140.256 14.494 140.256 15.1127C140.256 15.5546 140.444 15.9412 140.82 16.2726C141.195 16.6041 142.179 16.8803 143.769 17.1012C144.521 17.1896 145.371 17.3221 146.321 17.4989C147.271 17.6757 148.188 17.9518 149.072 18.3274C149.956 18.7031 150.685 19.2886 151.259 20.084C151.834 20.8794 152.121 21.962 152.121 23.3319C152.121 24.7459 151.723 25.9059 150.928 26.8118C150.133 27.7176 149.105 28.3915 147.846 28.8334C146.586 29.2753 145.228 29.4963 143.769 29.4963L143.769 29.4963ZM121.564 29.4963C119.664 29.4963 117.963 29.0544 116.46 28.1706C114.958 27.2868 113.787 26.0605 112.947 24.4918C112.108 22.9231 111.688 21.1666 111.688 19.2223C111.688 17.3221 112.108 15.6209 112.947 14.1184C113.787 12.616 114.958 11.4339 116.46 10.5723C117.963 9.71056 119.664 9.27972 121.564 9.27972C122.802 9.27972 123.906 9.48962 124.878 9.90941C125.851 10.3292 126.69 10.8705 127.397 11.5334C127.486 10.9147 127.751 10.4397 128.193 10.1083C128.635 9.77685 129.121 9.61114 129.651 9.61114C130.225 9.61114 130.745 9.79894 131.209 10.1745C131.673 10.5502 131.905 11.1136 131.905 11.8648L131.905 27.4415C131.905 28.1043 131.673 28.6125 131.209 28.966C130.745 29.3195 130.225 29.4963 129.651 29.4963C129.076 29.4963 128.557 29.3195 128.093 28.966C127.629 28.6125 127.397 28.1043 127.397 27.4415L127.397 27.1763C126.69 27.8833 125.851 28.4468 124.878 28.8666C123.906 29.2864 122.802 29.4963 121.564 29.4963L121.564 29.4963ZM121.962 25.3867C123.641 25.3867 124.967 24.8232 125.939 23.6964C126.911 22.5696 127.397 21.0782 127.397 19.2223C127.397 17.4547 126.911 16.0407 125.939 14.9801C124.967 13.9196 123.641 13.3893 121.962 13.3893C120.239 13.3893 118.847 13.9196 117.786 14.9801C116.726 16.0407 116.195 17.4547 116.195 19.2223C116.195 21.0782 116.726 22.5696 117.786 23.6964C118.847 24.8232 120.239 25.3867 121.962 25.3867L121.962 25.3867ZM105.391 29.4963C104.817 29.4963 104.297 29.3195 103.833 28.966C103.369 28.6125 103.137 28.1043 103.137 27.4415L103.137 11.5334C103.137 10.7822 103.369 10.2187 103.833 9.84313C104.297 9.46752 104.817 9.27972 105.391 9.27972C105.966 9.27972 106.485 9.46752 106.949 9.84313C107.413 10.2187 107.645 10.7821 107.645 11.5334L107.645 27.4415C107.645 28.1043 107.413 28.6125 106.949 28.966C106.485 29.3195 105.966 29.4963 105.391 29.4963L105.391 29.4963ZM105.457 5.63412C104.618 5.63412 103.9 5.35793 103.303 4.80557C102.707 4.25321 102.408 3.57932 102.408 2.78392C102.408 2.0327 102.707 1.38091 103.303 0.828546C103.9 0.276183 104.618 0 105.457 0C106.253 0 106.938 0.276183 107.512 0.828546C108.087 1.38091 108.374 2.0327 108.374 2.78392C108.374 3.57932 108.087 4.25321 107.512 4.80557C106.938 5.35793 106.253 5.63412 105.457 5.63412L105.457 5.63412ZM95.8462 29.4963C95.2718 29.4963 94.7525 29.3195 94.2886 28.966C93.8246 28.6125 93.5926 28.1043 93.5926 27.4415L93.5926 19.0897C93.5926 17.1454 93.1617 15.7092 92.3 14.7813C91.4384 13.8533 90.3005 13.3893 88.8864 13.3893C87.0747 13.3893 85.7601 13.9748 84.9426 15.1458C84.1251 16.3168 83.7163 17.6094 83.7163 19.0234L83.7163 27.4415C83.7163 28.1043 83.4843 28.6125 83.0203 28.966C82.5564 29.3195 82.0371 29.4963 81.4627 29.4963C80.8882 29.4963 80.369 29.3195 79.905 28.966C79.441 28.6125 79.209 28.1043 79.209 27.4415L79.209 11.8648C79.209 11.1136 79.441 10.5502 79.905 10.1745C80.369 9.79894 80.8882 9.61114 81.4627 9.61114C82.0371 9.61114 82.5564 9.79894 83.0203 10.1745C83.4843 10.5502 83.7163 11.1136 83.7163 11.8648C84.4675 11.1136 85.4397 10.4949 86.6328 10.0088C87.8259 9.52276 88.9527 9.27972 90.0133 9.27972C92.4879 9.27972 94.4543 10.0751 95.9125 11.6659C97.3708 13.2567 98.0999 15.5988 98.0999 18.692L98.0999 27.4415C98.0999 28.1043 97.8568 28.6125 97.3708 28.966C96.8847 29.3195 96.3765 29.4963 95.8462 29.4963L95.8462 29.4963ZM64.958 29.4963C63.0137 29.4963 61.2572 29.0544 59.6885 28.1706C58.1198 27.2868 56.8935 26.0605 56.0097 24.4918C55.126 22.9231 54.6841 21.1666 54.6841 19.2223C54.6841 17.3221 55.126 15.6209 56.0097 14.1184C56.8935 12.616 58.1198 11.4339 59.6885 10.5723C61.2572 9.71056 63.0137 9.27972 64.958 9.27972C66.9024 9.27972 68.6478 9.71056 70.1945 10.5723C71.7411 11.4339 72.9673 12.616 73.8732 14.1184C74.7791 15.6209 75.232 17.3221 75.232 19.2223C75.232 21.1666 74.7791 22.9231 73.8732 24.4918C72.9673 26.0605 71.7411 27.2868 70.1945 28.1706C68.6478 29.0544 66.9024 29.4963 64.958 29.4963L64.958 29.4963ZM64.958 25.3867C66.6814 25.3867 68.0734 24.8232 69.1339 23.6964C70.1944 22.5696 70.7247 21.0782 70.7247 19.2223C70.7247 17.4547 70.1944 16.0407 69.1339 14.9801C68.0734 13.9196 66.6814 13.3893 64.958 13.3893C63.1905 13.3893 61.7875 13.9196 60.749 14.9801C59.7106 16.0407 59.1913 17.4547 59.1913 19.2223C59.1913 21.0782 59.7106 22.5696 60.749 23.6964C61.7875 24.8232 63.1905 25.3867 64.958 25.3867L64.958 25.3867ZM39.9691 38.1131C39.0411 38.1131 38.0026 38.0248 36.8537 37.848C35.7048 37.6712 34.578 37.2956 33.4733 36.7212C32.6337 36.2793 32.2139 35.5944 32.2139 34.6664C32.2139 34.1361 32.4017 33.65 32.7773 33.2081C33.1529 32.7663 33.6279 32.5453 34.2024 32.5453C34.6001 32.5453 34.9978 32.6558 35.3955 32.8767C36.2351 33.3186 37.0747 33.6279 37.9143 33.8047C38.7539 33.9814 39.5714 34.0698 40.3668 34.0698C41.9576 34.0698 43.3274 33.6611 44.4764 32.8436C45.6253 32.0261 46.1997 30.7335 46.1997 28.966L46.1997 27.11C45.4485 27.8613 44.5758 28.4468 43.5815 28.8666C42.5873 29.2864 41.4715 29.4963 40.2342 29.4963C38.4224 29.4963 36.7764 29.0544 35.2961 28.1706C33.8157 27.2868 32.6447 26.0716 31.783 24.525C30.9213 22.9784 30.4905 21.2329 30.4905 19.2886C30.4905 17.3442 30.9103 15.5988 31.7499 14.0521C32.5895 12.5055 33.7384 11.2903 35.1966 10.4065C36.6549 9.52276 38.312 9.14715 40.1679 9.27972C41.4494 9.3681 42.5873 9.62219 43.5815 10.042C44.5758 10.4618 45.4485 11.0252 46.1997 11.7322C46.1997 11.1136 46.4096 10.6054 46.8294 10.2077C47.2492 9.80999 47.7905 9.61114 48.4534 9.61114C49.1162 9.61114 49.6575 9.80999 50.0773 10.2077C50.4971 10.6054 50.707 11.1136 50.707 11.7322L50.707 29.0986C50.707 31.1312 50.232 32.8215 49.2819 34.1693C48.3319 35.517 47.0393 36.5113 45.4043 37.152C43.7693 37.7928 41.9576 38.1131 39.9691 38.1131L39.9691 38.1131ZM40.7645 25.3867C42.4437 25.3867 43.7693 24.8232 44.7415 23.6964C45.7137 22.5696 46.1997 21.0782 46.1997 19.2223C46.1997 17.4547 45.7137 16.0407 44.7415 14.9801C43.7693 13.9196 42.4437 13.3893 40.7645 13.3893C39.0411 13.3893 37.6491 13.9196 36.5886 14.9801C35.5281 16.0407 34.9978 17.4768 34.9978 19.2886C34.9978 21.0561 35.517 22.5144 36.5555 23.6633C37.5939 24.8122 38.9969 25.3867 40.7645 25.3867L40.7645 25.3867ZM13.8533 29.4963C11.2903 29.4963 8.95935 28.8887 6.86036 27.6735C4.76138 26.4582 3.09324 24.8012 1.85594 22.7022C0.618648 20.6032 -1.26426e-07 18.228 0 15.5767C-1.26426e-07 12.7928 0.618648 10.3624 1.85594 8.28547C3.09324 6.20858 4.76138 4.58463 6.86036 3.41361C8.95935 2.2426 11.2903 1.65709 13.8533 1.65709C16.4163 1.65709 18.7251 2.2426 20.7799 3.41361C22.8347 4.58463 24.4697 6.20858 25.6849 8.28547C26.9001 10.3624 27.5077 12.7928 27.5077 15.5767C27.5077 18.228 26.9001 20.6032 25.6849 22.7022C24.4697 24.8012 22.8347 26.4582 20.7799 27.6735C18.7251 28.8887 16.4163 29.4963 13.8533 29.4963L13.8533 29.4963ZM13.8533 25.4529C15.6209 25.4529 17.1785 25 18.5263 24.0941C19.8741 23.1882 20.9236 21.9841 21.6748 20.4817C22.426 18.9792 22.8016 17.3442 22.8016 15.5767C22.8016 12.7486 21.962 10.4065 20.2828 8.5506C18.6036 6.69466 16.4605 5.76668 13.8533 5.76668C11.2019 5.76668 9.03668 6.69466 7.35749 8.5506C5.6783 10.4065 4.83871 12.7486 4.83871 15.5767C4.83871 17.3442 5.21432 18.9792 5.96553 20.4817C6.71675 21.9841 7.77729 23.1882 9.14715 24.0941C10.517 25 12.0857 25.4529 13.8533 25.4529L13.8533 25.4529Z" id="Ogoniasci.pl" fill="#000000" stroke="none" />
        <path d="M190.963 33.9128C190.963 33.7007 191.036 33.535 191.182 33.4157C191.328 33.2964 191.487 33.2367 191.659 33.2367C191.938 33.2367 192.137 33.3759 192.256 33.6543L193.807 37.4524C193.847 37.5584 193.92 37.6115 194.026 37.6115C194.132 37.6115 194.205 37.5651 194.244 37.4723L195.577 33.6742C195.683 33.3826 195.888 33.2367 196.193 33.2367C196.379 33.2367 196.548 33.2964 196.7 33.4157C196.853 33.535 196.929 33.6808 196.929 33.8532C196.929 33.9195 196.909 34.0123 196.869 34.1316L193.827 41.5487C193.721 41.8404 193.515 41.9862 193.21 41.9862C193.038 41.9862 192.876 41.9265 192.723 41.8072C192.571 41.6879 192.495 41.5421 192.495 41.3697C192.495 41.2372 192.514 41.1444 192.554 41.0914L193.529 39.1028C193.25 39.0763 193.058 38.9438 192.952 38.7051L191.003 34.1515C190.977 34.0454 190.963 33.9659 190.963 33.9128L190.963 33.9128ZM189.392 39.3017C189.22 39.3017 189.064 39.2487 188.925 39.1426C188.786 39.0366 188.716 38.8841 188.716 38.6853L188.716 36.1797C188.716 35.5964 188.587 35.1656 188.329 34.8872C188.07 34.6088 187.729 34.4696 187.305 34.4696C186.761 34.4696 186.367 34.6453 186.121 34.9966C185.876 35.3479 185.753 35.7356 185.753 36.1598L185.753 38.6853C185.753 38.8841 185.684 39.0366 185.545 39.1426C185.405 39.2487 185.25 39.3017 185.077 39.3017C184.905 39.3017 184.749 39.2487 184.61 39.1426C184.471 39.0366 184.401 38.8841 184.401 38.6853L184.401 34.0123C184.401 33.7869 184.471 33.6179 184.61 33.5052C184.749 33.3925 184.905 33.3362 185.077 33.3362C185.25 33.3362 185.405 33.3925 185.545 33.5052C185.684 33.6179 185.753 33.7869 185.753 34.0123C185.979 33.7869 186.27 33.6013 186.628 33.4555C186.986 33.3096 187.324 33.2367 187.643 33.2367C188.385 33.2367 188.975 33.4754 189.412 33.9526C189.85 34.4298 190.069 35.1325 190.069 36.0604L190.069 38.6853C190.069 38.8841 189.996 39.0366 189.85 39.1426C189.704 39.2487 189.552 39.3017 189.392 39.3017L189.392 39.3017ZM180.762 41.9862C180.497 41.9862 180.265 41.953 180.066 41.8868C179.775 41.7807 179.629 41.5819 179.629 41.2902C179.629 41.0516 179.712 40.8792 179.877 40.7732C180.043 40.6671 180.199 40.6406 180.345 40.6936C180.411 40.7069 180.471 40.7169 180.524 40.7235C180.577 40.7301 180.63 40.7334 180.683 40.7334C180.908 40.7334 181.087 40.6605 181.22 40.5147C181.352 40.3689 181.418 40.1302 181.418 39.7988L181.418 33.8532C181.418 33.6543 181.491 33.5019 181.637 33.3958C181.783 33.2898 181.929 33.2367 182.075 33.2367C182.247 33.2367 182.403 33.2931 182.542 33.4058C182.681 33.5184 182.751 33.6676 182.751 33.8532L182.751 39.8386C182.751 40.5279 182.555 41.0582 182.164 41.4294C181.773 41.8006 181.306 41.9862 180.762 41.9862L180.762 41.9862ZM182.134 32.1431C181.882 32.1431 181.667 32.0602 181.488 31.8945C181.309 31.7288 181.22 31.5266 181.22 31.288C181.22 31.0626 181.309 30.8671 181.488 30.7014C181.667 30.5357 181.882 30.4528 182.134 30.4528C182.373 30.4528 182.578 30.5357 182.751 30.7014C182.923 30.8671 183.009 31.0626 183.009 31.288C183.009 31.5266 182.923 31.7288 182.751 31.8945C182.578 32.0602 182.373 32.1431 182.134 32.1431L182.134 32.1431ZM174.26 33.9128C174.26 33.7007 174.333 33.535 174.479 33.4157C174.624 33.2964 174.783 33.2367 174.956 33.2367C175.234 33.2367 175.433 33.3759 175.552 33.6543L177.103 37.4524C177.143 37.5584 177.216 37.6115 177.322 37.6115C177.428 37.6115 177.501 37.5651 177.541 37.4723L178.873 33.6742C178.979 33.3826 179.185 33.2367 179.49 33.2367C179.675 33.2367 179.844 33.2964 179.997 33.4157C180.149 33.535 180.225 33.6808 180.225 33.8532C180.225 33.9195 180.205 34.0123 180.166 34.1316L177.123 41.5487C177.017 41.8404 176.812 41.9862 176.507 41.9862C176.335 41.9862 176.172 41.9265 176.02 41.8072C175.867 41.6879 175.791 41.5421 175.791 41.3697C175.791 41.2372 175.811 41.1444 175.851 41.0914L176.825 39.1028C176.547 39.0763 176.354 38.9438 176.248 38.7051L174.3 34.1515C174.273 34.0454 174.26 33.9659 174.26 33.9128L174.26 33.9128ZM171.337 36.1598L171.337 38.6853C171.337 38.8841 171.267 39.0366 171.128 39.1426C170.989 39.2487 170.833 39.3017 170.661 39.3017C170.488 39.3017 170.333 39.2487 170.193 39.1426C170.054 39.0366 169.985 38.8841 169.985 38.6853L169.985 34.0123C169.985 33.7869 170.054 33.6179 170.193 33.5052C170.333 33.3925 170.488 33.3362 170.661 33.3362C170.833 33.3362 170.989 33.3925 171.128 33.5052C171.267 33.6179 171.337 33.7869 171.337 34.0123L171.337 34.0918C171.522 33.8399 171.764 33.6344 172.063 33.4754C172.361 33.3163 172.676 33.2367 173.007 33.2367C173.166 33.2367 173.325 33.2566 173.484 33.2964C173.643 33.3362 173.763 33.4157 173.842 33.535C173.922 33.6543 173.962 33.7869 173.962 33.9327C173.962 34.1051 173.905 34.2608 173.793 34.4C173.68 34.5392 173.517 34.6088 173.305 34.6088C173.213 34.6088 173.116 34.5956 173.017 34.569C172.918 34.5425 172.795 34.5293 172.649 34.5293C172.265 34.5293 171.95 34.6751 171.705 34.9667C171.459 35.2584 171.337 35.6561 171.337 36.1598L171.337 36.1598ZM165.391 39.3017C164.821 39.3017 164.311 39.1691 163.86 38.904C163.409 38.6389 163.058 38.271 162.806 37.8004C162.554 37.3298 162.428 36.8028 162.428 36.2195C162.428 35.6495 162.554 35.1391 162.806 34.6883C163.058 34.2376 163.409 33.883 163.86 33.6245C164.311 33.366 164.821 33.2367 165.391 33.2367C165.762 33.2367 166.094 33.2997 166.385 33.4256C166.677 33.5516 166.929 33.714 167.141 33.9128C167.167 33.7272 167.247 33.5847 167.38 33.4853C167.512 33.3859 167.658 33.3362 167.817 33.3362C167.989 33.3362 168.145 33.3925 168.284 33.5052C168.424 33.6179 168.493 33.7869 168.493 34.0123L168.493 38.6853C168.493 38.8841 168.424 39.0366 168.284 39.1426C168.145 39.2487 167.989 39.3017 167.817 39.3017C167.645 39.3017 167.489 39.2487 167.35 39.1426C167.211 39.0366 167.141 38.8841 167.141 38.6853L167.141 38.6057C166.929 38.8178 166.677 38.9868 166.385 39.1128C166.094 39.2387 165.762 39.3017 165.391 39.3017L165.391 39.3017ZM165.51 38.0688C166.014 38.0688 166.412 37.8998 166.703 37.5618C166.995 37.2237 167.141 36.7763 167.141 36.2195C167.141 35.6892 166.995 35.265 166.703 34.9469C166.412 34.6287 166.014 34.4696 165.51 34.4696C164.993 34.4696 164.576 34.6287 164.258 34.9469C163.939 35.265 163.78 35.6892 163.78 36.2195C163.78 36.7763 163.939 37.2237 164.258 37.5618C164.576 37.8998 164.993 38.0688 165.51 38.0688L165.51 38.0688ZM160.658 39.3017C160.486 39.3017 160.33 39.2487 160.191 39.1426C160.052 39.0366 159.982 38.8841 159.982 38.6853L159.982 36.1797C159.982 35.5964 159.853 35.1656 159.595 34.8872C159.336 34.6088 158.995 34.4696 158.57 34.4696C158.027 34.4696 157.633 34.6453 157.387 34.9966C157.142 35.3479 157.019 35.7356 157.019 36.1598L157.019 38.6853C157.019 38.8841 156.95 39.0366 156.811 39.1426C156.671 39.2487 156.516 39.3017 156.343 39.3017C156.171 39.3017 156.015 39.2487 155.876 39.1426C155.737 39.0366 155.667 38.8841 155.667 38.6853L155.667 34.0123C155.667 33.7869 155.737 33.6179 155.876 33.5052C156.015 33.3925 156.171 33.3362 156.343 33.3362C156.516 33.3362 156.671 33.3925 156.811 33.5052C156.95 33.6179 157.019 33.7869 157.019 34.0123C157.245 33.7869 157.536 33.6013 157.894 33.4555C158.252 33.3096 158.59 33.2367 158.909 33.2367C159.651 33.2367 160.241 33.4754 160.678 33.9526C161.116 34.4298 161.335 35.1325 161.335 36.0604L161.335 38.6853C161.335 38.8841 161.262 39.0366 161.116 39.1426C160.97 39.2487 160.818 39.3017 160.658 39.3017L160.658 39.3017ZM148.707 33.9128C148.707 33.7007 148.78 33.535 148.926 33.4157C149.072 33.2964 149.231 33.2367 149.403 33.2367C149.682 33.2367 149.881 33.3759 150 33.6543L151.551 37.4524C151.591 37.5584 151.664 37.6115 151.77 37.6115C151.876 37.6115 151.949 37.5651 151.989 37.4723L153.321 33.6742C153.427 33.3826 153.632 33.2367 153.937 33.2367C154.123 33.2367 154.292 33.2964 154.444 33.4157C154.597 33.535 154.673 33.6808 154.673 33.8532C154.673 33.9195 154.653 34.0123 154.613 34.1316L151.571 41.5487C151.465 41.8404 151.259 41.9862 150.954 41.9862C150.782 41.9862 150.62 41.9265 150.467 41.8072C150.315 41.6879 150.239 41.5421 150.239 41.3697C150.239 41.2372 150.259 41.1444 150.298 41.0914L151.273 39.1028C150.994 39.0763 150.802 38.9438 150.696 38.7051L148.747 34.1515C148.721 34.0454 148.707 33.9659 148.707 33.9128L148.707 33.9128ZM145.784 36.1598L145.784 38.6853C145.784 38.8841 145.715 39.0366 145.576 39.1426C145.436 39.2487 145.281 39.3017 145.108 39.3017C144.936 39.3017 144.78 39.2487 144.641 39.1426C144.502 39.0366 144.432 38.8841 144.432 38.6853L144.432 34.0123C144.432 33.7869 144.502 33.6179 144.641 33.5052C144.78 33.3925 144.936 33.3362 145.108 33.3362C145.281 33.3362 145.436 33.3925 145.576 33.5052C145.715 33.6179 145.784 33.7869 145.784 34.0123L145.784 34.0918C145.97 33.8399 146.212 33.6344 146.51 33.4754C146.808 33.3163 147.123 33.2367 147.455 33.2367C147.614 33.2367 147.773 33.2566 147.932 33.2964C148.091 33.3362 148.21 33.4157 148.29 33.535C148.369 33.6543 148.409 33.7869 148.409 33.9327C148.409 34.1051 148.353 34.2608 148.24 34.4C148.127 34.5392 147.965 34.6088 147.753 34.6088C147.66 34.6088 147.564 34.5956 147.465 34.569C147.365 34.5425 147.243 34.5293 147.097 34.5293C146.712 34.5293 146.397 34.6751 146.152 34.9667C145.907 35.2584 145.784 35.6561 145.784 36.1598L145.784 36.1598ZM140.535 39.3017C139.54 39.3017 138.765 39.0167 138.208 38.4466C137.651 37.8766 137.373 37.1077 137.373 36.14C137.373 35.2915 137.655 34.5956 138.218 34.052C138.782 33.5085 139.507 33.2367 140.396 33.2367C141.257 33.2367 141.947 33.4853 142.464 33.9824C142.981 34.4796 143.239 35.0927 143.239 35.8218C143.239 36.1134 143.163 36.3322 143.01 36.478C142.858 36.6238 142.662 36.6967 142.424 36.6967L138.964 36.6967C138.831 36.6967 138.785 36.7697 138.825 36.9155C138.931 37.2867 139.146 37.575 139.471 37.7805C139.796 37.986 140.164 38.0887 140.574 38.0887C140.879 38.0887 141.174 38.0489 141.459 37.9694C141.744 37.8899 141.993 37.7705 142.205 37.6115C142.271 37.5584 142.358 37.5319 142.464 37.5319C142.609 37.5319 142.742 37.5949 142.861 37.7208C142.981 37.8468 143.04 37.9959 143.04 38.1682C143.04 38.2478 143.027 38.3273 143 38.4069C142.974 38.4864 142.914 38.5659 142.822 38.6455C142.477 38.8974 142.109 39.0697 141.718 39.1625C141.327 39.2553 140.932 39.3017 140.535 39.3017L140.535 39.3017ZM141.688 35.6627C141.768 35.6627 141.807 35.6229 141.807 35.5434C141.807 35.2385 141.671 34.9734 141.4 34.748C141.128 34.5226 140.793 34.41 140.396 34.41C140.051 34.41 139.723 34.5028 139.411 34.6883C139.1 34.8739 138.911 35.1192 138.844 35.4241C138.844 35.4241 138.844 35.4307 138.844 35.444C138.831 35.497 138.828 35.5434 138.835 35.5832C138.841 35.6229 138.897 35.6428 139.004 35.6428L141.688 35.6627ZM135.245 39.3017C134.728 39.3017 134.304 39.1426 133.973 38.8245C133.641 38.5063 133.475 38.0291 133.475 37.3927L133.475 34.8673C133.475 34.7348 133.409 34.6685 133.277 34.6685L132.919 34.6685C132.746 34.6685 132.601 34.6121 132.481 34.4994C132.362 34.3868 132.302 34.2443 132.302 34.0719C132.302 33.8863 132.362 33.7339 132.481 33.6146C132.601 33.4953 132.746 33.4356 132.919 33.4356L133.277 33.4356C133.409 33.4356 133.475 33.3693 133.475 33.2367L133.475 31.5664C133.475 31.3808 133.538 31.2317 133.664 31.119C133.79 31.0063 133.946 30.95 134.132 30.95C134.331 30.95 134.493 31.0063 134.619 31.119C134.745 31.2317 134.808 31.3808 134.808 31.5664L134.808 33.2367C134.808 33.3693 134.874 33.4356 135.007 33.4356L136.08 33.4356C136.24 33.4356 136.379 33.4953 136.498 33.6146C136.617 33.7339 136.677 33.8863 136.677 34.0719C136.677 34.2443 136.621 34.3868 136.508 34.4994C136.395 34.6121 136.246 34.6685 136.061 34.6685L135.007 34.6685C134.874 34.6685 134.808 34.7348 134.808 34.8673L134.808 37.2138C134.808 37.7705 135.033 38.0489 135.484 38.0489C135.616 38.0489 135.756 38.0291 135.901 37.9893C136.047 37.9495 136.147 37.9296 136.2 37.9296C136.385 37.9296 136.528 37.9893 136.627 38.1086C136.727 38.2279 136.776 38.3671 136.776 38.5262C136.776 38.6455 136.743 38.7615 136.677 38.8742C136.611 38.9869 136.505 39.0697 136.359 39.1227C136.213 39.1758 136.031 39.2188 135.812 39.252C135.593 39.2851 135.404 39.3017 135.245 39.3017L135.245 39.3017ZM129.101 39.3017C128.107 39.3017 127.331 39.0167 126.774 38.4466C126.217 37.8766 125.939 37.1077 125.939 36.14C125.939 35.2915 126.221 34.5956 126.784 34.052C127.348 33.5085 128.073 33.2367 128.962 33.2367C129.823 33.2367 130.513 33.4853 131.03 33.9824C131.547 34.4796 131.805 35.0927 131.805 35.8218C131.805 36.1134 131.729 36.3322 131.576 36.478C131.424 36.6238 131.228 36.6967 130.99 36.6967L127.53 36.6967C127.397 36.6967 127.351 36.7697 127.391 36.9155C127.497 37.2867 127.712 37.575 128.037 37.7805C128.362 37.986 128.73 38.0887 129.141 38.0887C129.445 38.0887 129.74 38.0489 130.025 37.9694C130.31 37.8899 130.559 37.7705 130.771 37.6115C130.837 37.5584 130.924 37.5319 131.03 37.5319C131.175 37.5319 131.308 37.5949 131.427 37.7208C131.547 37.8468 131.606 37.9959 131.606 38.1682C131.606 38.2478 131.593 38.3273 131.567 38.4069C131.54 38.4864 131.48 38.5659 131.388 38.6455C131.043 38.8974 130.675 39.0697 130.284 39.1625C129.893 39.2553 129.498 39.3017 129.101 39.3017L129.101 39.3017ZM130.254 35.6627C130.334 35.6627 130.373 35.6229 130.373 35.5434C130.373 35.2385 130.238 34.9734 129.966 34.748C129.694 34.5226 129.359 34.41 128.962 34.41C128.617 34.41 128.289 34.5028 127.977 34.6883C127.666 34.8739 127.477 35.1192 127.411 35.4241C127.411 35.4241 127.411 35.4307 127.411 35.444C127.397 35.497 127.394 35.5434 127.401 35.5832C127.407 35.6229 127.464 35.6428 127.57 35.6428L130.254 35.6627ZM118.999 39.3017C118.482 39.3017 118.157 39.0564 118.025 38.5659L116.812 34.1117C116.799 34.0719 116.792 34.0321 116.792 33.9924C116.792 33.9526 116.792 33.9195 116.792 33.8929C116.792 33.7074 116.855 33.5516 116.981 33.4256C117.107 33.2997 117.269 33.2367 117.468 33.2367C117.614 33.2367 117.75 33.2732 117.876 33.3461C118.002 33.419 118.078 33.5284 118.104 33.6742L118.84 37.1342C118.867 37.28 118.926 37.353 119.019 37.353C119.112 37.353 119.178 37.28 119.218 37.1342L120.252 34.0719C120.318 33.8863 120.431 33.7504 120.59 33.6643C120.749 33.5781 120.915 33.535 121.087 33.535C121.259 33.535 121.422 33.5781 121.574 33.6643C121.727 33.7504 121.829 33.8863 121.882 34.0719L122.917 37.1342C122.956 37.28 123.023 37.353 123.115 37.353C123.208 37.353 123.268 37.28 123.294 37.1342L124.03 33.6742C124.057 33.5284 124.133 33.419 124.259 33.3461C124.385 33.2732 124.521 33.2367 124.666 33.2367C124.865 33.2367 125.028 33.2997 125.154 33.4256C125.28 33.5516 125.342 33.7074 125.342 33.8929C125.342 33.9195 125.342 33.9526 125.342 33.9924C125.342 34.0321 125.336 34.0719 125.323 34.1117L124.11 38.5659C123.977 39.0564 123.652 39.3017 123.135 39.3017C122.91 39.3017 122.708 39.2321 122.529 39.0929C122.35 38.9537 122.227 38.7781 122.161 38.5659L121.246 35.6627C121.193 35.4904 121.133 35.4042 121.067 35.4042C120.988 35.4042 120.921 35.4904 120.868 35.6627L119.974 38.5659C119.907 38.7781 119.785 38.9537 119.606 39.0929C119.427 39.2321 119.225 39.3017 118.999 39.3017L118.999 39.3017ZM110.886 39.3017C110.369 39.3017 109.945 39.1426 109.613 38.8245C109.282 38.5063 109.116 38.0291 109.116 37.3927L109.116 34.8673C109.116 34.7348 109.05 34.6685 108.917 34.6685L108.559 34.6685C108.387 34.6685 108.241 34.6121 108.122 34.4994C108.003 34.3868 107.943 34.2443 107.943 34.0719C107.943 33.8863 108.003 33.7339 108.122 33.6146C108.241 33.4953 108.387 33.4356 108.559 33.4356L108.917 33.4356C109.05 33.4356 109.116 33.3693 109.116 33.2367L109.116 31.5664C109.116 31.3808 109.179 31.2317 109.305 31.119C109.431 31.0063 109.587 30.95 109.772 30.95C109.971 30.95 110.134 31.0063 110.26 31.119C110.386 31.2317 110.449 31.3808 110.449 31.5664L110.449 33.2367C110.449 33.3693 110.515 33.4356 110.647 33.4356L111.721 33.4356C111.88 33.4356 112.019 33.4953 112.139 33.6146C112.258 33.7339 112.318 33.8863 112.318 34.0719C112.318 34.2443 112.261 34.3868 112.149 34.4994C112.036 34.6121 111.887 34.6685 111.701 34.6685L110.647 34.6685C110.515 34.6685 110.449 34.7348 110.449 34.8673L110.449 37.2138C110.449 37.7705 110.674 38.0489 111.125 38.0489C111.257 38.0489 111.396 38.0291 111.542 37.9893C111.688 37.9495 111.787 37.9296 111.84 37.9296C112.026 37.9296 112.169 37.9893 112.268 38.1086C112.367 38.2279 112.417 38.3671 112.417 38.5262C112.417 38.6455 112.384 38.7615 112.318 38.8742C112.251 38.9869 112.145 39.0697 112 39.1227C111.854 39.1758 111.671 39.2188 111.453 39.252C111.234 39.2851 111.045 39.3017 110.886 39.3017L110.886 39.3017ZM104.742 39.3017C103.747 39.3017 102.972 39.0167 102.415 38.4466C101.858 37.8766 101.58 37.1077 101.58 36.14C101.58 35.2915 101.861 34.5956 102.425 34.052C102.988 33.5085 103.714 33.2367 104.602 33.2367C105.464 33.2367 106.153 33.4853 106.67 33.9824C107.187 34.4796 107.446 35.0927 107.446 35.8218C107.446 36.1134 107.37 36.3322 107.217 36.478C107.065 36.6238 106.869 36.6967 106.631 36.6967L103.171 36.6967C103.038 36.6967 102.992 36.7697 103.031 36.9155C103.137 37.2867 103.353 37.575 103.678 37.7805C104.002 37.986 104.37 38.0887 104.781 38.0887C105.086 38.0887 105.381 38.0489 105.666 37.9694C105.951 37.8899 106.2 37.7705 106.412 37.6115C106.478 37.5584 106.564 37.5319 106.67 37.5319C106.816 37.5319 106.949 37.5949 107.068 37.7208C107.187 37.8468 107.247 37.9959 107.247 38.1682C107.247 38.2478 107.234 38.3273 107.207 38.4069C107.181 38.4864 107.121 38.5659 107.028 38.6455C106.684 38.8974 106.316 39.0697 105.925 39.1625C105.534 39.2553 105.139 39.3017 104.742 39.3017L104.742 39.3017ZM105.895 35.6627C105.974 35.6627 106.014 35.6229 106.014 35.5434C106.014 35.2385 105.878 34.9734 105.607 34.748C105.335 34.5226 105 34.41 104.602 34.41C104.258 34.41 103.93 34.5028 103.618 34.6883C103.306 34.8739 103.118 35.1192 103.051 35.4241C103.051 35.4241 103.051 35.4307 103.051 35.444C103.038 35.497 103.035 35.5434 103.041 35.5832C103.048 35.6229 103.104 35.6428 103.21 35.6428L105.895 35.6627ZM99.81 39.3017C99.6377 39.3017 99.4819 39.2487 99.3427 39.1426C99.2035 39.0366 99.1339 38.8841 99.1339 38.6853L99.1339 36.1797C99.1339 35.5964 99.0047 35.1656 98.7462 34.8872C98.4876 34.6088 98.1463 34.4696 97.7221 34.4696C97.1785 34.4696 96.7842 34.6453 96.5389 34.9966C96.2937 35.3479 96.171 35.7356 96.171 36.1598L96.171 38.6853C96.171 38.8841 96.1014 39.0366 95.9622 39.1426C95.823 39.2487 95.6673 39.3017 95.4949 39.3017C95.3226 39.3017 95.1668 39.2487 95.0276 39.1426C94.8884 39.0366 94.8188 38.8841 94.8188 38.6853L94.8188 34.0123C94.8188 33.7869 94.8884 33.6179 95.0276 33.5052C95.1668 33.3925 95.3226 33.3362 95.4949 33.3362C95.6673 33.3362 95.823 33.3925 95.9622 33.5052C96.1014 33.6179 96.171 33.7869 96.171 34.0123C96.3964 33.7869 96.688 33.6013 97.046 33.4555C97.4039 33.3096 97.742 33.2367 98.0601 33.2367C98.8025 33.2367 99.3924 33.4754 99.8299 33.9526C100.267 34.4298 100.486 35.1325 100.486 36.0604L100.486 38.6853C100.486 38.8841 100.413 39.0366 100.267 39.1426C100.122 39.2487 99.9691 39.3017 99.81 39.3017L99.81 39.3017ZM92.5321 39.3017C92.3597 39.3017 92.204 39.2487 92.0648 39.1426C91.9256 39.0366 91.856 38.8841 91.856 38.6853L91.856 33.9128C91.856 33.6875 91.9256 33.5184 92.0648 33.4058C92.204 33.2931 92.3597 33.2367 92.5321 33.2367C92.7044 33.2367 92.8602 33.2931 92.9994 33.4058C93.1386 33.5184 93.2082 33.6875 93.2082 33.9128L93.2082 38.6853C93.2082 38.8841 93.1386 39.0366 92.9994 39.1426C92.8602 39.2487 92.7044 39.3017 92.5321 39.3017L92.5321 39.3017ZM92.5519 32.1431C92.3001 32.1431 92.0846 32.0602 91.9057 31.8945C91.7267 31.7288 91.6372 31.5266 91.6372 31.288C91.6372 31.0626 91.7267 30.8671 91.9057 30.7014C92.0846 30.5357 92.3001 30.4528 92.5519 30.4528C92.7906 30.4528 92.996 30.5357 93.1684 30.7014C93.3407 30.8671 93.4269 31.0626 93.4269 31.288C93.4269 31.5266 93.3407 31.7288 93.1684 31.8945C92.996 32.0602 92.7906 32.1431 92.5519 32.1431L92.5519 32.1431ZM87.6801 39.3017C87.3089 39.3017 86.9775 39.2387 86.6858 39.1128C86.3942 38.9869 86.1423 38.8178 85.9302 38.6057L85.9302 38.6853C85.9302 38.8841 85.8606 39.0366 85.7214 39.1426C85.5822 39.2487 85.4264 39.3017 85.2541 39.3017C85.0818 39.3017 84.926 39.2487 84.7868 39.1426C84.6476 39.0366 84.578 38.8841 84.578 38.6853L84.578 31.1289C84.578 30.9036 84.6476 30.7345 84.7868 30.6218C84.926 30.5092 85.0818 30.4528 85.2541 30.4528C85.4264 30.4528 85.5822 30.5092 85.7214 30.6218C85.8606 30.7345 85.9302 30.9036 85.9302 31.1289L85.9302 33.9128C86.1423 33.7007 86.3942 33.535 86.6858 33.4157C86.9775 33.2964 87.3089 33.2367 87.6801 33.2367C88.2634 33.2367 88.7771 33.366 89.2212 33.6245C89.6653 33.883 90.0133 34.2376 90.2651 34.6884C90.517 35.1391 90.643 35.6495 90.643 36.2195C90.643 36.8028 90.517 37.3298 90.2651 37.8004C90.0133 38.271 89.6653 38.6389 89.2212 38.904C88.7771 39.1691 88.2634 39.3017 87.6801 39.3017L87.6801 39.3017ZM87.5608 38.0688C88.0778 38.0688 88.4954 37.8998 88.8135 37.5618C89.1317 37.2237 89.2908 36.7763 89.2908 36.2195C89.2908 35.6892 89.1317 35.265 88.8135 34.9469C88.4954 34.6287 88.0778 34.4696 87.5608 34.4696C87.057 34.4696 86.6593 34.6287 86.3677 34.9469C86.076 35.265 85.9302 35.6892 85.9302 36.2195C85.9302 36.7763 86.076 37.2237 86.3677 37.5618C86.6593 37.8998 87.057 38.0688 87.5608 38.0688L87.5608 38.0688ZM79.9845 39.3017C79.4145 39.3017 78.9041 39.1691 78.4534 38.904C78.0027 38.6389 77.6514 38.271 77.3995 37.8004C77.1476 37.3298 77.0217 36.8028 77.0217 36.2195C77.0217 35.6495 77.1476 35.1391 77.3995 34.6883C77.6514 34.2376 78.0027 33.883 78.4534 33.6245C78.9041 33.366 79.4145 33.2367 79.9845 33.2367C80.3557 33.2367 80.6871 33.2997 80.9788 33.4256C81.2704 33.5516 81.5223 33.714 81.7344 33.9128C81.7609 33.7272 81.8405 33.5847 81.973 33.4853C82.1056 33.3859 82.2514 33.3362 82.4105 33.3362C82.5829 33.3362 82.7386 33.3925 82.8778 33.5052C83.017 33.6179 83.0866 33.7869 83.0866 34.0123L83.0866 38.6853C83.0866 38.8841 83.017 39.0366 82.8778 39.1426C82.7386 39.2487 82.5829 39.3017 82.4105 39.3017C82.2382 39.3017 82.0824 39.2487 81.9432 39.1426C81.804 39.0366 81.7344 38.8841 81.7344 38.6853L81.7344 38.6057C81.5223 38.8178 81.2704 38.9868 80.9788 39.1128C80.6871 39.2387 80.3557 39.3017 79.9845 39.3017L79.9845 39.3017ZM80.1039 38.0688C80.6076 38.0688 81.0053 37.8998 81.297 37.5618C81.5886 37.2237 81.7344 36.7763 81.7344 36.2195C81.7344 35.6892 81.5886 35.265 81.297 34.9469C81.0053 34.6287 80.6076 34.4696 80.1039 34.4696C79.5868 34.4696 79.1693 34.6287 78.8511 34.9469C78.5329 35.265 78.3738 35.6892 78.3738 36.2195C78.3738 36.7763 78.5329 37.2237 78.8511 37.5618C79.1693 37.8998 79.5868 38.0688 80.1039 38.0688L80.1039 38.0688ZM72.2492 39.3017C71.4936 39.3017 70.8076 39.1194 70.1911 38.7549C69.5747 38.3903 69.0842 37.8932 68.7196 37.2635C68.3551 36.6338 68.1728 35.9212 68.1728 35.1258C68.1728 34.2907 68.3551 33.5582 68.7196 32.9285C69.0842 32.2988 69.5813 31.8116 70.211 31.467C70.8407 31.1223 71.5466 30.95 72.3288 30.95C72.8723 30.95 73.3761 31.0196 73.84 31.1588C74.304 31.2979 74.7415 31.52 75.1525 31.8249C75.3115 31.9575 75.3911 32.1364 75.3911 32.3618C75.3911 32.5341 75.3347 32.6833 75.2221 32.8092C75.1094 32.9352 74.9602 32.9981 74.7747 32.9981C74.6553 32.9981 74.5228 32.9517 74.3769 32.8589C74.0588 32.6203 73.7274 32.448 73.3827 32.3419C73.038 32.2359 72.6933 32.1828 72.3487 32.1828C71.54 32.1828 70.8738 32.4513 70.3502 32.9882C69.8266 33.5251 69.5648 34.2376 69.5648 35.1258C69.5648 35.9875 69.8133 36.6934 70.3104 37.2436C70.8076 37.7937 71.4538 38.0688 72.2492 38.0688C72.7265 38.0688 73.1474 37.9827 73.5119 37.8103C73.8765 37.638 74.1682 37.4159 74.3869 37.1442C74.6056 36.8724 74.7282 36.604 74.7548 36.3388C74.7548 36.1267 74.6487 36.0207 74.4366 36.0207L73.0248 36.0207C72.5873 36.0207 72.3685 35.8152 72.3685 35.4042C72.3685 35.2186 72.4282 35.0728 72.5475 34.9668C72.6668 34.8607 72.8259 34.8077 73.0248 34.8077L75.2917 34.8077C75.5833 34.8077 75.7954 34.8706 75.928 34.9966C76.0605 35.1225 76.1268 35.3645 76.1268 35.7224C76.1268 36.372 75.9644 36.9685 75.6396 37.512C75.3149 38.0556 74.8608 38.4897 74.2775 38.8145C73.6942 39.1393 73.0181 39.3017 72.2492 39.3017L72.2492 39.3017Z" id="Gabinet-weterynaryjny" fill="#000000" stroke="none" />
      </g>
    </g>
  </g>
</svg>